<svg width="15" height="21" viewBox="0 0 15 21" fill="none" xmlns="http://www.w3.org/2000/svg">
<path d="M9.09375 17.4844V21H4.96875V17.4844H9.09375ZM9.07812 15.1875H4.95312C4.95312 14.5104 4.98958 13.9531 5.0625 13.5156C5.14583 13.0781 5.30729 12.6667 5.54688 12.2812C5.79688 11.8854 6.08333 11.5365 6.40625 11.2344C6.72917 10.9323 7.20312 10.5469 7.82812 10.0781C8.59896 9.42188 9.15625 8.80208 9.5 8.21875C9.85417 7.63542 10.0312 6.9375 10.0312 6.125C10.0312 5.3125 9.80208 4.66667 9.34375 4.1875C8.88542 3.69792 8.26042 3.45312 7.46875 3.45312C6.6875 3.45312 6.0625 3.66667 5.59375 4.09375C5.13542 4.51042 4.90104 5.10938 4.89062 5.89062H0.90625L0.875 5.8125C0.84375 4.03125 1.41667 2.65625 2.59375 1.6875C3.78125 0.71875 5.40625 0.234375 7.46875 0.234375C9.53125 0.234375 11.1562 0.765625 12.3438 1.82812C13.5417 2.88021 14.1406 4.33333 14.1406 6.1875C14.1406 7.33333 13.8125 8.40104 13.1562 9.39062C12.5 10.3802 11.599 11.2552 10.4531 12.0156C9.90104 12.4427 9.53125 12.8698 9.34375 13.2969C9.16667 13.724 9.07812 14.3542 9.07812 15.1875Z" fill="#905127"/>
</svg>
