<svg width="50" height="47" viewBox="0 0 50 47" fill="none" xmlns="http://www.w3.org/2000/svg">
<path d="M49 23.7901C49 35.8936 38.3328 45.8409 25 45.8409C11.6672 45.8409 1 35.8936 1 23.7901C1 11.6867 11.6672 1.73938 25 1.73938C38.3328 1.73938 49 11.6867 49 23.7901Z" fill="white" stroke="#905127" stroke-width="2"/>
<g clip-path="url(#clip0_30_276)">
<path d="M25 27.4783C27.2092 27.4783 29 25.827 29 23.7901C29 21.7532 27.2092 20.102 25 20.102C22.7909 20.102 21 21.7532 21 23.7901C21 25.827 22.7909 27.4783 25 27.4783Z" stroke="#905127" stroke-width="3" stroke-linecap="round" stroke-linejoin="round"/>
<path d="M34.8667 27.4783C34.6892 27.8491 34.6363 28.2604 34.7147 28.6592C34.7931 29.058 34.9993 29.426 35.3067 29.7157L35.3867 29.7895C35.6346 30.0178 35.8313 30.289 35.9655 30.5875C36.0997 30.886 36.1688 31.2059 36.1688 31.529C36.1688 31.8522 36.0997 32.1721 35.9655 32.4706C35.8313 32.7691 35.6346 33.0403 35.3867 33.2686C35.139 33.4972 34.8449 33.6786 34.5212 33.8023C34.1975 33.926 33.8505 33.9897 33.5 33.9897C33.1496 33.9897 32.8026 33.926 32.4789 33.8023C32.1551 33.6786 31.861 33.4972 31.6134 33.2686L31.5334 33.1948C31.2191 32.9114 30.82 32.7213 30.3875 32.649C29.955 32.5767 29.5089 32.6255 29.1067 32.7892C28.7123 32.945 28.376 33.2038 28.1391 33.5336C27.9022 33.8634 27.7751 34.2499 27.7734 34.6455V34.8545C27.7734 35.5066 27.4924 36.132 26.9923 36.5931C26.4922 37.0542 25.814 37.3133 25.1067 37.3133C24.3995 37.3133 23.7212 37.0542 23.2211 36.5931C22.721 36.132 22.44 35.5066 22.44 34.8545V34.7439C22.4297 34.3369 22.2869 33.9423 22.0301 33.6112C21.7732 33.2802 21.4144 33.028 21 32.8875C20.5979 32.7239 20.1518 32.675 19.7193 32.7474C19.2867 32.8197 18.8876 33.0098 18.5734 33.2932L18.4934 33.367C18.2457 33.5956 17.9516 33.7769 17.6279 33.9007C17.3042 34.0244 16.9571 34.0881 16.6067 34.0881C16.2563 34.0881 15.9093 34.0244 15.5855 33.9007C15.2618 33.7769 14.9677 33.5956 14.72 33.367C14.4721 33.1386 14.2754 32.8674 14.1412 32.569C14.007 32.2705 13.9379 31.9505 13.9379 31.6274C13.9379 31.3043 14.007 30.9843 14.1412 30.6858C14.2754 30.3874 14.4721 30.1162 14.72 29.8878L14.8 29.8141C15.1074 29.5243 15.3136 29.1563 15.392 28.7575C15.4705 28.3587 15.4175 27.9474 15.24 27.5766C15.071 27.213 14.7904 26.9029 14.4327 26.6845C14.0749 26.466 13.6558 26.3488 13.2267 26.3472H13C12.2928 26.3472 11.6145 26.0882 11.1144 25.6271C10.6143 25.166 10.3334 24.5406 10.3334 23.8885C10.3334 23.2364 10.6143 22.611 11.1144 22.1499C11.6145 21.6888 12.2928 21.4297 13 21.4297H13.12C13.5614 21.4202 13.9894 21.2885 14.3484 21.0517C14.7075 20.8149 14.981 20.484 15.1334 20.102C15.3109 19.7312 15.3638 19.3199 15.2854 18.9211C15.207 18.5223 15.0008 18.1543 14.6934 17.8646L14.6134 17.7908C14.3654 17.5624 14.1687 17.2913 14.0345 16.9928C13.9004 16.6943 13.8313 16.3743 13.8313 16.0512C13.8313 15.7281 13.9004 15.4082 14.0345 15.1097C14.1687 14.8112 14.3654 14.54 14.6134 14.3117C14.861 14.0831 15.1551 13.9017 15.4789 13.778C15.8026 13.6542 16.1496 13.5906 16.5 13.5906C16.8505 13.5906 17.1975 13.6542 17.5212 13.778C17.8449 13.9017 18.139 14.0831 18.3867 14.3117L18.4667 14.3854C18.7809 14.6688 19.1801 14.859 19.6126 14.9313C20.0451 15.0036 20.4912 14.9548 20.8934 14.7911H21C21.3944 14.6353 21.7307 14.3765 21.9676 14.0467C22.2045 13.7169 22.3317 13.3304 22.3334 12.9348V12.7258C22.3334 12.0737 22.6143 11.4483 23.1144 10.9872C23.6145 10.5261 24.2928 10.267 25 10.267C25.7073 10.267 26.3856 10.5261 26.8857 10.9872C27.3858 11.4483 27.6667 12.0737 27.6667 12.7258V12.8364C27.6684 13.232 27.7956 13.6185 28.0325 13.9483C28.2694 14.2782 28.6057 14.5369 29 14.6928C29.4022 14.8564 29.8483 14.9052 30.2808 14.8329C30.7134 14.7606 31.1125 14.5705 31.4267 14.2871L31.5067 14.2133C31.7544 13.9847 32.0485 13.8034 32.3722 13.6796C32.6959 13.5559 33.0429 13.4922 33.3934 13.4922C33.7438 13.4922 34.0908 13.5559 34.4145 13.6796C34.7383 13.8034 35.0324 13.9847 35.28 14.2133C35.528 14.4417 35.7247 14.7128 35.8589 15.0113C35.9931 15.3098 36.0621 15.6298 36.0621 15.9529C36.0621 16.276 35.9931 16.5959 35.8589 16.8944C35.7247 17.1929 35.528 17.4641 35.28 17.6924L35.2 17.7662C34.8927 18.0559 34.6865 18.4239 34.608 18.8227C34.5296 19.2215 34.5826 19.6329 34.76 20.0037V20.102C34.9291 20.4656 35.2097 20.7757 35.5674 20.9942C35.9251 21.2126 36.3443 21.3298 36.7734 21.3314H37C37.7073 21.3314 38.3856 21.5904 38.8857 22.0515C39.3858 22.5126 39.6667 23.138 39.6667 23.7901C39.6667 24.4422 39.3858 25.0676 38.8857 25.5287C38.3856 25.9898 37.7073 26.2489 37 26.2489H36.88C36.451 26.2505 36.0318 26.3677 35.6741 26.5861C35.3164 26.8045 35.0357 27.1147 34.8667 27.4783Z" stroke="#905127" stroke-width="3" stroke-linecap="round" stroke-linejoin="round"/>
</g>
<defs>
<clipPath id="clip0_30_276">
<rect width="32" height="29.505" fill="white" transform="translate(9 9.03766)"/>
</clipPath>
</defs>
</svg>
