<svg width="143" height="53" viewBox="0 0 143 53" fill="none" xmlns="http://www.w3.org/2000/svg">
<rect x="1.5" y="1.5" width="140" height="50" rx="13.5" fill="#FFB2AD" stroke="#7B1212" stroke-width="3"/>
<path d="M35.4301 21.1797V25.3789H37.9594C38.6625 25.3789 39.2029 25.1901 39.5805 24.8125C39.9581 24.4349 40.1469 23.9303 40.1469 23.2988C40.1469 22.6608 39.9581 22.1497 39.5805 21.7656C39.2029 21.375 38.6625 21.1797 37.9594 21.1797H35.4301ZM37.9594 27.3613H35.4301V32H32.8617V19.207H37.9594C39.4242 19.207 40.5798 19.5781 41.4262 20.3203C42.279 21.056 42.7055 22.0456 42.7055 23.2891C42.7055 24.526 42.2823 25.5156 41.4359 26.2578C40.5896 26.9935 39.4307 27.3613 37.9594 27.3613ZM48.3535 32H45.7949V22.4883H48.1777L48.2852 23.8945C48.7734 22.8398 49.4733 22.3125 50.3848 22.3125C50.6061 22.3125 50.834 22.3483 51.0684 22.4199L50.7949 24.6953L49.8574 24.666C49.1348 24.666 48.6335 24.9688 48.3535 25.5742V32ZM59.0211 26.1113C59.0211 25.5514 58.8909 25.1152 58.6305 24.8027C58.3766 24.4837 58.0055 24.3242 57.5172 24.3242C57.0289 24.3242 56.6448 24.5 56.3648 24.8516C56.0849 25.2031 55.9124 25.6849 55.8473 26.2969L55.8766 26.3457H59.0211V26.1113ZM57.7223 32.2148C56.3551 32.2148 55.2581 31.7819 54.4312 30.916C53.6109 30.0501 53.2008 28.9271 53.2008 27.5469V27.1953C53.2008 26.2513 53.3733 25.4115 53.7184 24.6758C54.0699 23.9401 54.5712 23.3672 55.2223 22.957C55.8798 22.5404 56.6383 22.332 57.4977 22.332C58.7737 22.332 59.7665 22.7161 60.4762 23.4844C61.1858 24.2461 61.5406 25.2943 61.5406 26.6289V28.0254H55.8668L55.8473 28.084C55.8928 28.7285 56.1044 29.2493 56.482 29.6465C56.8596 30.0371 57.3414 30.2324 57.9273 30.2324C58.5133 30.2324 58.9918 30.1803 59.3629 30.0762C59.734 29.9655 60.1572 29.7799 60.6324 29.5195L61.3258 31.1016V31.1113C60.9156 31.4499 60.398 31.7201 59.773 31.9219C59.1546 32.1172 58.471 32.2148 57.7223 32.2148ZM68.1164 30.4473V30.4766C68.5852 30.4766 68.9432 30.3854 69.1906 30.2031C69.4445 30.0143 69.5715 29.7637 69.5715 29.4512C69.5715 29.1387 69.4283 28.8848 69.1418 28.6895C68.8618 28.4876 68.3638 28.3053 67.6477 28.1426C66.4888 27.9082 65.6327 27.5664 65.0793 27.1172C64.5259 26.668 64.2492 26.043 64.2492 25.2422C64.2492 24.4349 64.5943 23.7513 65.2844 23.1914C65.981 22.6315 66.9152 22.3516 68.0871 22.3516C69.2655 22.3516 70.2128 22.6348 70.9289 23.2012C71.6516 23.7611 71.9966 24.4805 71.9641 25.3594L71.9445 25.4082H69.4641C69.4641 25.0176 69.3404 24.7051 69.093 24.4707C68.8456 24.2363 68.5038 24.1191 68.0676 24.1191C67.6379 24.1191 67.3026 24.2201 67.0617 24.4219C66.8208 24.6172 66.7004 24.8711 66.7004 25.1836C66.7004 25.4961 66.8306 25.7435 67.091 25.9258C67.3514 26.1016 67.8495 26.2578 68.5852 26.3945C69.7831 26.6354 70.6587 26.9837 71.2121 27.4395C71.772 27.8952 72.052 28.5365 72.052 29.3633C72.052 30.1836 71.6841 30.8639 70.9484 31.4043C70.2193 31.9382 69.246 32.2051 68.0285 32.2051C66.8111 32.2051 65.8247 31.8958 65.0695 31.2773C64.3208 30.6523 63.966 29.9102 64.0051 29.0508L64.0148 28.9922H66.3684C66.3944 29.9622 66.9771 30.4473 68.1164 30.4473ZM77.6805 28.0156V32H75.1121V18.2891H77.6805V26.0625H78.3055L80.5125 22.4883H83.491L80.4441 26.7949L83.95 32H81.0105L78.3836 28.0156H77.6805ZM88.3187 27.1758V27.3613C88.3187 28.2663 88.475 28.9727 88.7875 29.4805C89.1065 29.9818 89.5915 30.2324 90.2426 30.2324C90.8936 30.2324 91.3754 29.9785 91.6879 29.4707C92.0069 28.9629 92.1664 28.2598 92.1664 27.3613V27.1758C92.1664 26.2904 92.0069 25.5938 91.6879 25.0859C91.3689 24.5716 90.8871 24.3145 90.2426 24.3145C89.598 24.3145 89.1163 24.5716 88.7973 25.0859C88.4783 25.6003 88.3187 26.2969 88.3187 27.1758ZM85.7602 27.3613V27.1758C85.7602 25.724 86.1573 24.5553 86.9516 23.6699C87.7523 22.778 88.8461 22.332 90.2328 22.332C91.626 22.332 92.723 22.778 93.5238 23.6699C94.3311 24.5553 94.7348 25.724 94.7348 27.1758V27.3613C94.7348 28.8197 94.3344 29.9915 93.5336 30.877C92.7328 31.7624 91.6358 32.2051 90.2426 32.2051C88.8559 32.2051 87.7621 31.7624 86.9613 30.877C86.1605 29.9915 85.7602 28.8197 85.7602 27.3613ZM99.7773 27.1465V27.4199C99.7773 29.3014 100.396 30.2422 101.633 30.2422C102.095 30.2422 102.463 30.1087 102.736 29.8418C103.01 29.5749 103.146 29.2201 103.146 28.7773H105.48L105.5 28.8262C105.526 29.7897 105.168 30.597 104.426 31.248C103.684 31.8926 102.753 32.2148 101.633 32.2148C100.24 32.2148 99.1523 31.7786 98.3711 30.9062C97.5964 30.0273 97.209 28.8652 97.209 27.4199V27.1562C97.209 25.7109 97.5964 24.5488 98.3711 23.6699C99.1523 22.7845 100.24 22.3418 101.633 22.3418C102.811 22.3418 103.755 22.6771 104.465 23.3477C105.181 24.0117 105.526 24.8906 105.5 25.9844L105.49 26.0332H103.146C103.146 25.5319 103.01 25.1217 102.736 24.8027C102.463 24.4772 102.095 24.3145 101.633 24.3145C100.396 24.3145 99.7773 25.2585 99.7773 27.1465ZM104.865 17.2734V17.3711L102.209 19.8418H100.598L97.9512 17.3516V17.2734H100.119L101.408 18.5332L102.697 17.2734H104.865ZM111.207 22.4883V32H108.638V22.4883H111.207ZM111.207 18.2891V20.2129H108.638V18.2891H111.207Z" fill="#7B1212"/>
</svg>
