<svg width="50" height="47" viewBox="0 0 50 47" fill="none" xmlns="http://www.w3.org/2000/svg">
<path d="M49 23.7901C49 35.8936 38.3328 45.8409 25 45.8409C11.6672 45.8409 1 35.8936 1 23.7901C1 11.6867 11.6672 1.73938 25 1.73938C38.3328 1.73938 49 11.6867 49 23.7901Z" fill="white" stroke="#905127" stroke-width="2"/>
<path d="M37.7227 22.3206L35.3438 20.1914V14.9732C35.3438 14.165 34.6055 13.5037 33.7031 13.5037H32.0625C31.1602 13.5037 30.4219 14.165 30.4219 14.9732V15.7858L27.1406 12.8498C26.6927 12.4707 26.2826 12.0342 25.5 12.0342C24.7174 12.0342 24.3073 12.4707 23.8594 12.8498L13.2773 22.3206C12.7655 22.7982 12.375 23.1465 12.375 23.7901C12.375 24.6174 13.0837 25.2596 14.0156 25.2596H15.6562V34.0765C15.6562 34.8847 16.3945 35.546 17.2969 35.546H20.5781C21.4842 35.546 22.2188 34.8881 22.2188 34.0765V28.1986C22.2188 27.3904 22.957 26.7291 23.8594 26.7291H27.1406C28.043 26.7291 28.7812 27.3904 28.7812 28.1986V34.0765C28.7812 34.8881 28.6955 35.546 29.6016 35.546H33.7031C34.6055 35.546 35.3438 34.8847 35.3438 34.0765V25.2596H36.9844C37.9163 25.2596 38.625 24.6174 38.625 23.7901C38.625 23.1465 38.2345 22.7982 37.7227 22.3206Z" stroke="#905127" stroke-width="2" stroke-linejoin="round"/>
</svg>
