<svg width="143" height="53" viewBox="0 0 143 53" fill="none" xmlns="http://www.w3.org/2000/svg">
<rect x="1.5" y="1.5" width="140" height="50" rx="13.5" fill="#E8F2E2" stroke="#294F16" stroke-width="3"/>
<path d="M43.7812 21.1797V25.3789H46.3105C47.0137 25.3789 47.554 25.1901 47.9316 24.8125C48.3092 24.4349 48.498 23.9303 48.498 23.2988C48.498 22.6608 48.3092 22.1497 47.9316 21.7656C47.554 21.375 47.0137 21.1797 46.3105 21.1797H43.7812ZM46.3105 27.3613H43.7812V32H41.2129V19.207H46.3105C47.7754 19.207 48.931 19.5781 49.7773 20.3203C50.6302 21.056 51.0566 22.0456 51.0566 23.2891C51.0566 24.526 50.6334 25.5156 49.7871 26.2578C48.9407 26.9935 47.7819 27.3613 46.3105 27.3613ZM56.1871 27.1758V27.3613C56.1871 28.2663 56.3433 28.9727 56.6558 29.4805C56.9749 29.9818 57.4599 30.2324 58.1109 30.2324C58.762 30.2324 59.2437 29.9785 59.5562 29.4707C59.8752 28.9629 60.0347 28.2598 60.0347 27.3613V27.1758C60.0347 26.2904 59.8752 25.5938 59.5562 25.0859C59.2372 24.5716 58.7554 24.3145 58.1109 24.3145C57.4664 24.3145 56.9846 24.5716 56.6656 25.0859C56.3466 25.6003 56.1871 26.2969 56.1871 27.1758ZM53.6285 27.3613V27.1758C53.6285 25.724 54.0256 24.5553 54.8199 23.6699C55.6207 22.778 56.7144 22.332 58.1012 22.332C59.4944 22.332 60.5914 22.778 61.3922 23.6699C62.1995 24.5553 62.6031 25.724 62.6031 27.1758V27.3613C62.6031 28.8197 62.2027 29.9915 61.4019 30.877C60.6012 31.7624 59.5041 32.2051 58.1109 32.2051C56.7242 32.2051 55.6304 31.7624 54.8297 30.877C54.0289 29.9915 53.6285 28.8197 53.6285 27.3613ZM70.7804 22.3125C71.7635 22.3125 72.5187 22.6217 73.0461 23.2402C73.5734 23.8587 73.8371 24.7995 73.8371 26.0625V32H71.259V26.0625C71.259 25.4375 71.132 24.9883 70.8781 24.7148C70.6307 24.4414 70.2401 24.3047 69.7062 24.3047C69.0291 24.3047 68.4953 24.5684 68.1047 25.0957V32H65.5363V22.4883L67.9387 22.498L68.0558 23.8652C68.7134 22.8301 69.6216 22.3125 70.7804 22.3125ZM79.2996 27.1758V27.3613C79.2996 28.2663 79.4558 28.9727 79.7683 29.4805C80.0874 29.9818 80.5724 30.2324 81.2234 30.2324C81.8745 30.2324 82.3562 29.9785 82.6687 29.4707C82.9877 28.9629 83.1472 28.2598 83.1472 27.3613V27.1758C83.1472 26.2904 82.9877 25.5938 82.6687 25.0859C82.3497 24.5716 81.868 24.3145 81.2234 24.3145C80.5789 24.3145 80.0971 24.5716 79.7781 25.0859C79.4591 25.6003 79.2996 26.2969 79.2996 27.1758ZM76.741 27.3613V27.1758C76.741 25.724 77.1381 24.5553 77.9324 23.6699C78.7332 22.778 79.8269 22.332 81.2137 22.332C82.6069 22.332 83.7039 22.778 84.5047 23.6699C85.312 24.5553 85.7156 25.724 85.7156 27.1758V27.3613C85.7156 28.8197 85.3152 29.9915 84.5144 30.877C83.7137 31.7624 82.6166 32.2051 81.2234 32.2051C79.8367 32.2051 78.743 31.7624 77.9422 30.877C77.1414 29.9915 76.741 28.8197 76.741 27.3613ZM90.3969 22.4883L91.9984 28.4551L92.1644 29.334H92.2133L92.389 28.4551L93.9515 22.4883H96.6371L93.4047 32H90.9535L87.7113 22.4883H90.3969ZM101.855 22.4883V32H99.2871V22.4883H101.855ZM101.855 18.2891V20.2129H99.2871V18.2891H101.855Z" fill="#294F16"/>
</svg>
