<svg width="35" height="31" viewBox="0 0 35 31" fill="none" xmlns="http://www.w3.org/2000/svg">
<path d="M29.7227 14.0469L27.3438 11.9413V6.78125C27.3438 5.98203 26.6055 5.32812 25.7031 5.32812H24.0625C23.1602 5.32812 22.4219 5.98203 22.4219 6.78125V7.58483L19.1406 4.68148C18.6927 4.30658 18.2826 3.875 17.5 3.875C16.7174 3.875 16.3073 4.30658 15.8594 4.68148L5.27734 14.0469C4.76547 14.5191 4.375 14.8635 4.375 15.5C4.375 16.3181 5.08375 16.9531 6.01562 16.9531H7.65625V25.6719C7.65625 26.4711 8.39453 27.125 9.29688 27.125H12.5781C13.4842 27.125 14.2188 26.4744 14.2188 25.6719V19.8594C14.2188 19.0602 14.957 18.4062 15.8594 18.4062H19.1406C20.043 18.4062 20.7812 19.0602 20.7812 19.8594V25.6719C20.7812 26.4744 20.6955 27.125 21.6016 27.125H25.7031C26.6055 27.125 27.3438 26.4711 27.3438 25.6719V16.9531H28.9844C29.9163 16.9531 30.625 16.3181 30.625 15.5C30.625 14.8635 30.2345 14.5191 29.7227 14.0469Z" stroke="#905127" stroke-width="2" stroke-linejoin="round"/>
</svg>
