<svg width="384" height="33" viewBox="0 0 384 33" fill="none" xmlns="http://www.w3.org/2000/svg">
<path d="M6.60605 19.981V32H0.82724V3.21582H6.60605V14.9712H9.1329L16.7574 3.21582H23.8106L14.1207 16.6191L24.5797 32H17.5484L9.81406 19.981H6.60605ZM35.7717 1.15039V32H29.9929V1.15039H35.7717ZM49.7322 10.5986V32H43.9534V10.5986H49.7322ZM49.7322 1.15039V5.479H43.9534V1.15039H49.7322ZM63.4071 23.0352V32H57.6283V1.15039H63.4071V18.6406H64.8134L69.7792 10.5986H76.4809L69.6254 20.2886L77.5136 32H70.8998L64.9892 23.0352H63.4071ZM108.753 10.2031C110.964 10.2031 112.664 10.8989 113.85 12.2905C115.037 13.6821 115.63 15.7988 115.63 18.6406V32H109.829V18.6406C109.829 17.2344 109.544 16.2236 108.972 15.6084C108.416 14.9932 107.537 14.6855 106.336 14.6855C104.812 14.6855 103.611 15.2788 102.732 16.4653V32H96.9532V10.5986L102.358 10.6206L102.622 13.6968C104.102 11.3677 106.145 10.2031 108.753 10.2031ZM128.953 32.4614C126.727 32.4614 125.006 31.8901 123.79 30.7476C122.574 29.605 121.966 28.001 121.966 25.9355C121.966 23.8555 122.772 22.2515 124.383 21.1235C125.994 19.981 128.353 19.4097 131.458 19.4097H134.666V17.7178C134.666 16.6631 134.395 15.8574 133.853 15.3008C133.311 14.7441 132.542 14.4658 131.546 14.4658C130.565 14.4658 129.818 14.6929 129.305 15.147C128.792 15.6011 128.536 16.231 128.536 17.0366L122.955 17.0146V16.9048C122.852 15.0444 123.636 13.4697 125.306 12.1807C126.99 10.8916 129.151 10.2471 131.788 10.2471C134.439 10.2471 136.549 10.9062 138.116 12.2246C139.683 13.543 140.467 15.3813 140.467 17.7397V26.5947C140.467 28.5137 140.782 30.3301 141.412 32.0439H135.633C135.164 30.96 134.879 29.8906 134.776 28.8359C133.37 31.2529 131.429 32.4614 128.953 32.4614ZM127.679 25.8257H127.701C127.701 26.5435 127.935 27.1221 128.404 27.5615C128.887 27.9863 129.576 28.1987 130.469 28.1987C131.378 28.1987 132.227 27.957 133.018 27.4736C133.809 26.9756 134.351 26.3823 134.644 25.6938V22.6616H131.436C130.235 22.6616 129.305 22.9619 128.646 23.5625C128.001 24.1484 127.679 24.9028 127.679 25.8257ZM168.608 10.5986V32H162.829V10.5986H168.608ZM168.608 1.15039V5.479H162.829V1.15039H168.608ZM188.193 10.2031C190.405 10.2031 192.104 10.8989 193.291 12.2905C194.478 13.6821 195.071 15.7988 195.071 18.6406V32H189.27V18.6406C189.27 17.2344 188.984 16.2236 188.413 15.6084C187.856 14.9932 186.978 14.6855 185.776 14.6855C184.253 14.6855 183.052 15.2788 182.173 16.4653V32H176.394V10.5986L181.799 10.6206L182.063 13.6968C183.542 11.3677 185.586 10.2031 188.193 10.2031ZM209.778 32H203.956V14.6636H200.77V10.5986H203.956V8.22559C203.956 5.82324 204.644 3.97754 206.021 2.68848C207.398 1.38477 209.346 0.73291 211.866 0.73291C212.715 0.73291 213.777 0.87207 215.052 1.15039L214.568 5.43506C213.616 5.30322 212.972 5.2373 212.635 5.2373C210.731 5.2373 209.778 6.2334 209.778 8.22559V10.5986H214.041V14.6636H209.778V32ZM225.013 21.1455V21.563C225.013 23.5991 225.365 25.1885 226.068 26.3311C226.786 27.459 227.877 28.0229 229.342 28.0229C230.807 28.0229 231.891 27.4517 232.594 26.3091C233.312 25.1665 233.671 23.5845 233.671 21.563V21.1455C233.671 19.1533 233.312 17.5859 232.594 16.4434C231.876 15.2861 230.792 14.7075 229.342 14.7075C227.892 14.7075 226.808 15.2861 226.09 16.4434C225.372 17.6006 225.013 19.168 225.013 21.1455ZM219.257 21.563V21.1455C219.257 17.8789 220.15 15.2495 221.937 13.2573C223.739 11.2505 226.2 10.2471 229.32 10.2471C232.455 10.2471 234.923 11.2505 236.725 13.2573C238.541 15.2495 239.449 17.8789 239.449 21.1455V21.563C239.449 24.8442 238.549 27.481 236.747 29.4731C234.945 31.4653 232.477 32.4614 229.342 32.4614C226.222 32.4614 223.761 31.4653 221.959 29.4731C220.157 27.481 219.257 24.8442 219.257 21.563ZM266.799 10.5986V32H261.02V10.5986H266.799ZM266.799 1.15039V5.479H261.02V1.15039H266.799ZM280.474 23.0352V32H274.695V1.15039H280.474V18.6406H281.88L286.846 10.5986H293.548L286.692 20.2886L294.581 32H287.967L282.056 23.0352H280.474ZM304.41 21.1455V21.563C304.41 23.5991 304.762 25.1885 305.465 26.3311C306.183 27.459 307.274 28.0229 308.739 28.0229C310.204 28.0229 311.288 27.4517 311.991 26.3091C312.709 25.1665 313.067 23.5845 313.067 21.563V21.1455C313.067 19.1533 312.709 17.5859 311.991 16.4434C311.273 15.2861 310.189 14.7075 308.739 14.7075C307.289 14.7075 306.205 15.2861 305.487 16.4434C304.769 17.6006 304.41 19.168 304.41 21.1455ZM298.653 21.563V21.1455C298.653 17.8789 299.547 15.2495 301.334 13.2573C303.136 11.2505 305.597 10.2471 308.717 10.2471C311.852 10.2471 314.32 11.2505 316.122 13.2573C317.938 15.2495 318.846 17.8789 318.846 21.1455V21.563C318.846 24.8442 317.945 27.481 316.144 29.4731C314.342 31.4653 311.874 32.4614 308.739 32.4614C305.619 32.4614 303.158 31.4653 301.356 29.4731C299.554 27.481 298.653 24.8442 298.653 21.563ZM337.245 10.2031C339.457 10.2031 341.156 10.8989 342.343 12.2905C343.529 13.6821 344.123 15.7988 344.123 18.6406V32H338.322V18.6406C338.322 17.2344 338.036 16.2236 337.465 15.6084C336.908 14.9932 336.029 14.6855 334.828 14.6855C333.305 14.6855 332.104 15.2788 331.225 16.4653V32H325.446V10.5986L330.851 10.6206L331.115 13.6968C332.594 11.3677 334.638 10.2031 337.245 10.2031ZM358.611 32.4614C356.296 32.4614 354.516 31.729 353.271 30.2642C352.041 28.7993 351.426 26.5654 351.426 23.5625V10.6426H357.16V23.6064C357.16 25.1445 357.417 26.2578 357.929 26.9463C358.442 27.6348 359.233 27.979 360.303 27.979C362.104 27.979 363.43 27.3931 364.28 26.2212V10.6426H370.058V32.0439H365.137L364.631 28.9678C363.254 31.2969 361.247 32.4614 358.611 32.4614ZM383.096 27.4517V32H377.911V27.4517H383.096ZM383.096 10.1372V14.6855H377.911V10.1372H383.096Z" fill="white"/>
</svg>
