<svg width="288" height="41" viewBox="0 0 288 41" fill="none" xmlns="http://www.w3.org/2000/svg">
<path d="M6.16367 18.981V31H0.384857V2.21582H6.16367V13.9712H8.69052L16.315 2.21582H23.3683L13.6783 15.6191L24.1373 31H17.106L9.37167 18.981H6.16367ZM35.3293 0.150391V31H29.5505V0.150391H35.3293ZM49.2898 9.59863V31H43.511V9.59863H49.2898ZM49.2898 0.150391V4.479H43.511V0.150391H49.2898ZM62.9647 22.0352V31H57.1859V0.150391H62.9647V17.6406H64.371L69.3368 9.59863H76.0385L69.183 19.2886L77.0712 31H70.4574L64.5468 22.0352H62.9647ZM108.31 9.20312C110.522 9.20312 112.221 9.89893 113.408 11.2905C114.594 12.6821 115.188 14.7988 115.188 17.6406V31H109.387V17.6406C109.387 16.2344 109.101 15.2236 108.53 14.6084C107.973 13.9932 107.094 13.6855 105.893 13.6855C104.37 13.6855 103.169 14.2788 102.29 15.4653V31H96.5108V9.59863L101.916 9.62061L102.18 12.6968C103.659 10.3677 105.703 9.20312 108.31 9.20312ZM128.511 31.4614C126.284 31.4614 124.563 30.8901 123.347 29.7476C122.132 28.605 121.524 27.001 121.524 24.9355C121.524 22.8555 122.329 21.2515 123.941 20.1235C125.552 18.981 127.91 18.4097 131.016 18.4097H134.224V16.7178C134.224 15.6631 133.953 14.8574 133.411 14.3008C132.869 13.7441 132.1 13.4658 131.104 13.4658C130.122 13.4658 129.375 13.6929 128.862 14.147C128.35 14.6011 128.093 15.231 128.093 16.0366L122.512 16.0146V15.9048C122.41 14.0444 123.194 12.4697 124.863 11.1807C126.548 9.8916 128.709 9.24707 131.345 9.24707C133.997 9.24707 136.106 9.90625 137.674 11.2246C139.241 12.543 140.025 14.3813 140.025 16.7397V25.5947C140.025 27.5137 140.34 29.3301 140.969 31.0439H135.191C134.722 29.96 134.436 28.8906 134.334 27.8359C132.927 30.2529 130.987 31.4614 128.511 31.4614ZM127.237 24.8257H127.258C127.258 25.5435 127.493 26.1221 127.962 26.5615C128.445 26.9863 129.133 27.1987 130.027 27.1987C130.935 27.1987 131.785 26.957 132.576 26.4736C133.367 25.9756 133.909 25.3823 134.202 24.6938V21.6616H130.994C129.793 21.6616 128.862 21.9619 128.203 22.5625C127.559 23.1484 127.237 23.9028 127.237 24.8257ZM169.154 31.4614C166.84 31.4614 165.06 30.729 163.815 29.2642C162.584 27.7993 161.969 25.5654 161.969 22.5625V9.64258H167.704V22.6064C167.704 24.1445 167.96 25.2578 168.473 25.9463C168.986 26.6348 169.777 26.979 170.846 26.979C172.648 26.979 173.974 26.3931 174.823 25.2212V9.64258H180.602V31.0439H175.68L175.175 27.9678C173.798 30.2969 171.791 31.4614 169.154 31.4614ZM199.045 32.3184C196.804 32.3184 195.068 31.5054 193.837 29.8794V40.1406H188.081V10.5215H193.288L193.618 13.0483C194.936 11.1001 196.745 10.126 199.045 10.126C201.667 10.126 203.71 11.144 205.175 13.1802C206.655 15.2163 207.395 17.9556 207.395 21.3979L207.373 21.8154C207.373 25.0234 206.633 27.5796 205.153 29.4839C203.688 31.3735 201.652 32.3184 199.045 32.3184ZM201.616 21.8154V21.3979C201.616 19.2886 201.271 17.6333 200.583 16.4321C199.895 15.2163 198.876 14.6084 197.529 14.6084C195.815 14.6084 194.592 15.2969 193.859 16.6738V26.0342C194.577 27.2793 195.815 27.9019 197.573 27.9019C198.935 27.9019 199.946 27.3745 200.605 26.3198C201.279 25.2505 201.616 23.749 201.616 21.8154ZM221.157 31.4614C218.843 31.4614 217.063 30.729 215.818 29.2642C214.587 27.7993 213.972 25.5654 213.972 22.5625V9.64258H219.707V22.6064C219.707 24.1445 219.963 25.2578 220.476 25.9463C220.989 26.6348 221.78 26.979 222.849 26.979C224.651 26.979 225.977 26.3931 226.826 25.2212V9.64258H232.605V31.0439H227.683L227.178 27.9678C225.801 30.2969 223.794 31.4614 221.157 31.4614ZM241.182 4.41309H246.961V9.64258H250.565V13.7075H246.961V24.606C246.961 26.144 247.598 26.9131 248.873 26.9131C249.327 26.9131 249.84 26.8398 250.411 26.6934L250.894 30.8682C249.678 31.2637 248.514 31.4614 247.401 31.4614C243.255 31.4614 241.182 29.1836 241.182 24.6279V13.7075H238.062V9.64258H241.182V4.41309ZM269.821 17.7505C269.821 16.4907 269.528 15.5093 268.942 14.8062C268.37 14.0884 267.535 13.7295 266.437 13.7295C265.338 13.7295 264.474 14.125 263.844 14.916C263.214 15.707 262.826 16.791 262.679 18.168L262.745 18.2778H269.821V17.7505ZM266.898 31.4834C263.822 31.4834 261.354 30.5093 259.493 28.561C257.648 26.6128 256.725 24.0859 256.725 20.9805V20.1895C256.725 18.0654 257.113 16.1758 257.889 14.5205C258.68 12.8652 259.808 11.5762 261.273 10.6533C262.753 9.71582 264.459 9.24707 266.393 9.24707C269.264 9.24707 271.498 10.1113 273.095 11.8398C274.691 13.5537 275.49 15.9121 275.49 18.915V22.0571H262.723L262.679 22.189C262.782 23.6392 263.258 24.811 264.108 25.7046C264.957 26.5835 266.041 27.0229 267.36 27.0229C268.678 27.0229 269.755 26.9058 270.59 26.6714C271.425 26.4224 272.377 26.0049 273.446 25.4189L275.006 28.9785V29.0005C274.083 29.7622 272.919 30.3701 271.512 30.8242C270.121 31.2637 268.583 31.4834 266.898 31.4834ZM287.538 26.4517V31H282.353V26.4517H287.538ZM287.538 9.13721V13.6855H282.353V9.13721H287.538Z" fill="white"/>
</svg>
