<svg width="360" height="634" viewBox="0 0 360 634" fill="none" xmlns="http://www.w3.org/2000/svg">
<g clip-path="url(#clip0_53_60)">
<circle cx="316.5" cy="47.5" r="23" fill="white" stroke="#905127" stroke-width="3"/>
<path d="M318.094 56.4844V60H313.969V56.4844H318.094ZM318.078 54.1875H313.953C313.953 53.5104 313.99 52.9531 314.062 52.5156C314.146 52.0781 314.307 51.6667 314.547 51.2812C314.797 50.8854 315.083 50.5365 315.406 50.2344C315.729 49.9323 316.203 49.5469 316.828 49.0781C317.599 48.4219 318.156 47.8021 318.5 47.2188C318.854 46.6354 319.031 45.9375 319.031 45.125C319.031 44.3125 318.802 43.6667 318.344 43.1875C317.885 42.6979 317.26 42.4531 316.469 42.4531C315.688 42.4531 315.062 42.6667 314.594 43.0938C314.135 43.5104 313.901 44.1094 313.891 44.8906H309.906L309.875 44.8125C309.844 43.0312 310.417 41.6562 311.594 40.6875C312.781 39.7188 314.406 39.2344 316.469 39.2344C318.531 39.2344 320.156 39.7656 321.344 40.8281C322.542 41.8802 323.141 43.3333 323.141 45.1875C323.141 46.3333 322.812 47.401 322.156 48.3906C321.5 49.3802 320.599 50.2552 319.453 51.0156C318.901 51.4427 318.531 51.8698 318.344 52.2969C318.167 52.724 318.078 53.3542 318.078 54.1875Z" fill="#905127"/>
<circle cx="49" cy="47" r="24" fill="white" stroke="#905127" stroke-width="2"/>
<path d="M61.7227 45.4062L59.3438 43.0969V37.4375C59.3438 36.5609 58.6055 35.8438 57.7031 35.8438H56.0625C55.1602 35.8438 54.4219 36.5609 54.4219 37.4375V38.3188L51.1406 35.1345C50.6927 34.7233 50.2826 34.25 49.5 34.25C48.7174 34.25 48.3073 34.7233 47.8594 35.1345L37.2773 45.4062C36.7655 45.9242 36.375 46.3019 36.375 47C36.375 47.8973 37.0837 48.5938 38.0156 48.5938H39.6562V58.1562C39.6562 59.0328 40.3945 59.75 41.2969 59.75H44.5781C45.4842 59.75 46.2188 59.0365 46.2188 58.1562V51.7812C46.2188 50.9047 46.957 50.1875 47.8594 50.1875H51.1406C52.043 50.1875 52.7812 50.9047 52.7812 51.7812V58.1562C52.7812 59.0365 52.6955 59.75 53.6016 59.75H57.7031C58.6055 59.75 59.3438 59.0328 59.3438 58.1562V48.5938H60.9844C61.9163 48.5938 62.625 47.8973 62.625 47C62.625 46.3019 62.2345 45.9242 61.7227 45.4062Z" stroke="#905127" stroke-width="2" stroke-linejoin="round"/>
<rect x="12.5" y="111.5" width="336" height="261" rx="27.5" fill="white" stroke="#905127" stroke-width="5"/>
<path d="M35.1227 269.705V271.678H29.7613V277H27.193V264.207H36.0211V266.18H29.7613V269.705H35.1227ZM40.7414 272.176V272.361C40.7414 273.266 40.8977 273.973 41.2102 274.48C41.5292 274.982 42.0142 275.232 42.6652 275.232C43.3163 275.232 43.798 274.979 44.1105 274.471C44.4296 273.963 44.5891 273.26 44.5891 272.361V272.176C44.5891 271.29 44.4296 270.594 44.1105 270.086C43.7915 269.572 43.3098 269.314 42.6652 269.314C42.0207 269.314 41.5389 269.572 41.2199 270.086C40.9009 270.6 40.7414 271.297 40.7414 272.176ZM38.1828 272.361V272.176C38.1828 270.724 38.5799 269.555 39.3742 268.67C40.175 267.778 41.2687 267.332 42.6555 267.332C44.0487 267.332 45.1457 267.778 45.9465 268.67C46.7538 269.555 47.1574 270.724 47.1574 272.176V272.361C47.1574 273.82 46.757 274.992 45.9562 275.877C45.1555 276.762 44.0585 277.205 42.6652 277.205C41.2785 277.205 40.1848 276.762 39.384 275.877C38.5832 274.992 38.1828 273.82 38.1828 272.361ZM55.3348 267.312C56.3178 267.312 57.073 267.622 57.6004 268.24C58.1277 268.859 58.3914 269.799 58.3914 271.062V277H55.8133V271.062C55.8133 270.438 55.6863 269.988 55.4324 269.715C55.185 269.441 54.7944 269.305 54.2605 269.305C53.5835 269.305 53.0496 269.568 52.659 270.096V277H50.0906V267.488L52.493 267.498L52.6102 268.865C53.2677 267.83 54.1759 267.312 55.3348 267.312ZM62.1742 265.184H64.7426V267.508H66.3441V269.314H64.7426V274.158C64.7426 274.842 65.0258 275.184 65.5922 275.184C65.794 275.184 66.0219 275.151 66.2758 275.086L66.4906 276.941C65.9503 277.117 65.4327 277.205 64.9379 277.205C63.0954 277.205 62.1742 276.193 62.1742 274.168V269.314H60.7875V267.508H62.1742V265.184Z" fill="#905127"/>
<path d="M34.3844 190.027V192H25.0191V190.662L31.1031 181.18H25.0289V179.207H34.2379V180.486L28.1246 190.027H34.3844ZM39.9543 192.205C38.9647 192.205 38.1997 191.951 37.6594 191.443C37.119 190.936 36.8488 190.223 36.8488 189.305C36.8488 188.38 37.2069 187.667 37.923 187.166C38.6392 186.658 39.6874 186.404 41.0676 186.404H42.4934V185.652C42.4934 185.184 42.3729 184.826 42.132 184.578C41.8911 184.331 41.5494 184.207 41.1066 184.207C40.6704 184.207 40.3384 184.308 40.1105 184.51C39.8827 184.712 39.7688 184.992 39.7688 185.35L37.2883 185.34V185.291C37.2427 184.464 37.591 183.764 38.3332 183.191C39.0819 182.618 40.0422 182.332 41.2141 182.332C42.3924 182.332 43.3299 182.625 44.0266 183.211C44.7232 183.797 45.0715 184.614 45.0715 185.662V189.598C45.0715 190.451 45.2115 191.258 45.4914 192.02H42.923C42.7147 191.538 42.5878 191.062 42.5422 190.594C41.9172 191.668 41.0546 192.205 39.9543 192.205ZM39.3879 189.256H39.3977C39.3977 189.575 39.5018 189.832 39.7102 190.027C39.925 190.216 40.231 190.311 40.6281 190.311C41.0318 190.311 41.4094 190.203 41.7609 189.988C42.1125 189.767 42.3534 189.503 42.4836 189.197V187.85H41.0578C40.524 187.85 40.1105 187.983 39.8176 188.25C39.5311 188.51 39.3879 188.846 39.3879 189.256ZM56.4617 185.223L56.4813 185.75V192H53.9227V186.238C53.9227 185.548 53.8087 185.053 53.5809 184.754C53.353 184.454 52.9982 184.305 52.5164 184.305C51.8393 184.305 51.3217 184.559 50.9637 185.066V192H48.4051V182.488H50.7977L50.9051 183.748C51.5366 182.791 52.4643 182.312 53.6883 182.312C54.9122 182.312 55.7456 182.856 56.1883 183.943C56.8068 182.856 57.7378 182.312 58.9813 182.312C59.9448 182.312 60.6902 182.641 61.2176 183.299C61.7449 183.956 62.0086 184.936 62.0086 186.238V192H59.4402V186.238C59.4402 185.535 59.3263 185.037 59.0984 184.744C58.8771 184.451 58.5255 184.305 58.0438 184.305C57.3211 184.305 56.7938 184.611 56.4617 185.223ZM67.9496 192H65.391V182.488H67.7738L67.8813 183.895C68.3695 182.84 69.0694 182.312 69.9809 182.312C70.2022 182.312 70.4301 182.348 70.6645 182.42L70.391 184.695L69.4535 184.666C68.7309 184.666 68.2296 184.969 67.9496 185.574V192ZM80.6777 190.027V192H72.7773V190.486L77.2988 184.48H72.9141V182.488H80.5215V183.953L75.9609 190.027H80.6777ZM86.316 192.205C85.3264 192.205 84.5615 191.951 84.0211 191.443C83.4807 190.936 83.2105 190.223 83.2105 189.305C83.2105 188.38 83.5686 187.667 84.2848 187.166C85.0009 186.658 86.0491 186.404 87.4293 186.404H88.8551V185.652C88.8551 185.184 88.7346 184.826 88.4938 184.578C88.2529 184.331 87.9111 184.207 87.4684 184.207C87.0322 184.207 86.7001 184.308 86.4723 184.51C86.2444 184.712 86.1305 184.992 86.1305 185.35L83.65 185.34V185.291C83.6044 184.464 83.9527 183.764 84.6949 183.191C85.4436 182.618 86.4039 182.332 87.5758 182.332C88.7542 182.332 89.6917 182.625 90.3883 183.211C91.0849 183.797 91.4332 184.614 91.4332 185.662V189.598C91.4332 190.451 91.5732 191.258 91.8531 192.02H89.2848C89.0764 191.538 88.9495 191.062 88.9039 190.594C88.2789 191.668 87.4163 192.205 86.316 192.205ZM85.7496 189.256H85.7594C85.7594 189.575 85.8635 189.832 86.0719 190.027C86.2867 190.216 86.5927 190.311 86.9898 190.311C87.3935 190.311 87.7711 190.203 88.1227 189.988C88.4742 189.767 88.7151 189.503 88.8453 189.197V187.85H87.4195C86.8857 187.85 86.4723 187.983 86.1793 188.25C85.8928 188.51 85.7496 188.846 85.7496 189.256ZM96.466 182.488L98.0676 188.455L98.2336 189.334H98.2824L98.4582 188.455L100.021 182.488H102.706L99.4738 192H97.0227L93.7805 182.488H96.466ZM107.71 192.205C106.72 192.205 105.955 191.951 105.415 191.443C104.874 190.936 104.604 190.223 104.604 189.305C104.604 188.38 104.962 187.667 105.679 187.166C106.395 186.658 107.443 186.404 108.823 186.404H110.249V185.652C110.249 185.184 110.128 184.826 109.888 184.578C109.647 184.331 109.305 184.207 108.862 184.207C108.426 184.207 108.094 184.308 107.866 184.51C107.638 184.712 107.524 184.992 107.524 185.35L105.044 185.34V185.291C104.998 184.464 105.346 183.764 106.089 183.191C106.837 182.618 107.798 182.332 108.97 182.332C110.148 182.332 111.085 182.625 111.782 183.211C112.479 183.797 112.827 184.614 112.827 185.662V189.598C112.827 190.451 112.967 191.258 113.247 192.02H110.679C110.47 191.538 110.343 191.062 110.298 190.594C109.673 191.668 108.81 192.205 107.71 192.205ZM107.143 189.256H107.153C107.153 189.575 107.257 189.832 107.466 190.027C107.68 190.216 107.986 190.311 108.384 190.311C108.787 190.311 109.165 190.203 109.516 189.988C109.868 189.767 110.109 189.503 110.239 189.197V187.85H108.813C108.279 187.85 107.866 187.983 107.573 188.25C107.287 188.51 107.143 188.846 107.143 189.256ZM121.356 182.312C122.339 182.312 123.094 182.622 123.621 183.24C124.149 183.859 124.412 184.799 124.412 186.062V192H121.834V186.062C121.834 185.438 121.707 184.988 121.454 184.715C121.206 184.441 120.815 184.305 120.282 184.305C119.605 184.305 119.071 184.568 118.68 185.096V192H116.112V182.488L118.514 182.498L118.631 183.865C119.289 182.83 120.197 182.312 121.356 182.312ZM127.912 182.918H130.48V192.781C130.48 193.895 130.188 194.754 129.602 195.359C129.016 195.965 128.192 196.268 127.131 196.268C126.682 196.268 126.262 196.219 125.871 196.121L125.988 194.158C126.275 194.23 126.555 194.266 126.828 194.266C127.551 194.266 127.912 193.771 127.912 192.781V182.918ZM130.432 178.719V180.623H127.854V178.719H130.432ZM139.42 186.111C139.42 185.551 139.289 185.115 139.029 184.803C138.775 184.484 138.404 184.324 137.916 184.324C137.427 184.324 137.043 184.5 136.763 184.852C136.483 185.203 136.311 185.685 136.246 186.297L136.275 186.346H139.42V186.111ZM138.121 192.215C136.754 192.215 135.657 191.782 134.83 190.916C134.009 190.05 133.599 188.927 133.599 187.547V187.195C133.599 186.251 133.772 185.411 134.117 184.676C134.468 183.94 134.97 183.367 135.621 182.957C136.278 182.54 137.037 182.332 137.896 182.332C139.172 182.332 140.165 182.716 140.875 183.484C141.584 184.246 141.939 185.294 141.939 186.629V188.025H136.265L136.246 188.084C136.291 188.729 136.503 189.249 136.88 189.646C137.258 190.037 137.74 190.232 138.326 190.232C138.912 190.232 139.39 190.18 139.761 190.076C140.132 189.965 140.556 189.78 141.031 189.52L141.724 191.102V191.111C141.314 191.45 140.796 191.72 140.171 191.922C139.553 192.117 138.869 192.215 138.121 192.215ZM158.889 190.027V192H150.989V190.486L155.511 184.48H151.126V182.488H158.733V183.953L154.173 190.027H158.889ZM164.528 192.205C163.538 192.205 162.773 191.951 162.233 191.443C161.692 190.936 161.422 190.223 161.422 189.305C161.422 188.38 161.78 187.667 162.496 187.166C163.213 186.658 164.261 186.404 165.641 186.404H167.067V185.652C167.067 185.184 166.946 184.826 166.705 184.578C166.465 184.331 166.123 184.207 165.68 184.207C165.244 184.207 164.912 184.308 164.684 184.51C164.456 184.712 164.342 184.992 164.342 185.35L161.862 185.34V185.291C161.816 184.464 162.164 183.764 162.907 183.191C163.655 182.618 164.616 182.332 165.788 182.332C166.966 182.332 167.903 182.625 168.6 183.211C169.297 183.797 169.645 184.614 169.645 185.662V189.598C169.645 190.451 169.785 191.258 170.065 192.02H167.496C167.288 191.538 167.161 191.062 167.116 190.594C166.491 191.668 165.628 192.205 164.528 192.205ZM163.961 189.256H163.971C163.971 189.575 164.075 189.832 164.284 190.027C164.498 190.216 164.804 190.311 165.202 190.311C165.605 190.311 165.983 190.203 166.334 189.988C166.686 189.767 166.927 189.503 167.057 189.197V187.85H165.631C165.097 187.85 164.684 187.983 164.391 188.25C164.105 188.51 163.961 188.846 163.961 189.256ZM176.66 190.447V190.477C177.129 190.477 177.487 190.385 177.734 190.203C177.988 190.014 178.115 189.764 178.115 189.451C178.115 189.139 177.972 188.885 177.686 188.689C177.406 188.488 176.908 188.305 176.191 188.143C175.033 187.908 174.176 187.566 173.623 187.117C173.07 186.668 172.793 186.043 172.793 185.242C172.793 184.435 173.138 183.751 173.828 183.191C174.525 182.632 175.459 182.352 176.631 182.352C177.809 182.352 178.757 182.635 179.473 183.201C180.195 183.761 180.54 184.48 180.508 185.359L180.488 185.408H178.008C178.008 185.018 177.884 184.705 177.637 184.471C177.389 184.236 177.048 184.119 176.611 184.119C176.182 184.119 175.846 184.22 175.605 184.422C175.365 184.617 175.244 184.871 175.244 185.184C175.244 185.496 175.374 185.743 175.635 185.926C175.895 186.102 176.393 186.258 177.129 186.395C178.327 186.635 179.202 186.984 179.756 187.439C180.316 187.895 180.596 188.536 180.596 189.363C180.596 190.184 180.228 190.864 179.492 191.404C178.763 191.938 177.79 192.205 176.572 192.205C175.355 192.205 174.368 191.896 173.613 191.277C172.865 190.652 172.51 189.91 172.549 189.051L172.559 188.992H174.912C174.938 189.962 175.521 190.447 176.66 190.447ZM186.351 178.289V192H183.783V178.289H186.351ZM192.019 187.176V187.361C192.019 188.266 192.175 188.973 192.487 189.48C192.806 189.982 193.292 190.232 193.943 190.232C194.594 190.232 195.075 189.979 195.388 189.471C195.707 188.963 195.866 188.26 195.866 187.361V187.176C195.866 186.29 195.707 185.594 195.388 185.086C195.069 184.572 194.587 184.314 193.943 184.314C193.298 184.314 192.816 184.572 192.497 185.086C192.178 185.6 192.019 186.297 192.019 187.176ZM189.46 187.361V187.176C189.46 185.724 189.857 184.555 190.652 183.67C191.452 182.778 192.546 182.332 193.933 182.332C195.326 182.332 196.423 182.778 197.224 183.67C198.031 184.555 198.435 185.724 198.435 187.176V187.361C198.435 188.82 198.034 189.992 197.234 190.877C196.433 191.762 195.336 192.205 193.943 192.205C192.556 192.205 191.462 191.762 190.661 190.877C189.861 189.992 189.46 188.82 189.46 187.361ZM206.612 182.312C207.595 182.312 208.35 182.622 208.878 183.24C209.405 183.859 209.669 184.799 209.669 186.062V192H207.091V186.062C207.091 185.438 206.964 184.988 206.71 184.715C206.462 184.441 206.072 184.305 205.538 184.305C204.861 184.305 204.327 184.568 203.936 185.096V192H201.368V182.488L203.77 182.498L203.888 183.865C204.545 182.83 205.453 182.312 206.612 182.312ZM215.59 192.205C214.601 192.205 213.836 191.951 213.295 191.443C212.755 190.936 212.485 190.223 212.485 189.305C212.485 188.38 212.843 187.667 213.559 187.166C214.275 186.658 215.323 186.404 216.704 186.404H218.129V185.652C218.129 185.184 218.009 184.826 217.768 184.578C217.527 184.331 217.185 184.207 216.743 184.207C216.306 184.207 215.974 184.308 215.746 184.51C215.519 184.712 215.405 184.992 215.405 185.35L212.924 185.34V185.291C212.879 184.464 213.227 183.764 213.969 183.191C214.718 182.618 215.678 182.332 216.85 182.332C218.028 182.332 218.966 182.625 219.663 183.211C220.359 183.797 220.707 184.614 220.707 185.662V189.598C220.707 190.451 220.847 191.258 221.127 192.02H218.559C218.351 191.538 218.224 191.062 218.178 190.594C217.553 191.668 216.691 192.205 215.59 192.205ZM215.024 189.256H215.034C215.034 189.575 215.138 189.832 215.346 190.027C215.561 190.216 215.867 190.311 216.264 190.311C216.668 190.311 217.045 190.203 217.397 189.988C217.748 189.767 217.989 189.503 218.12 189.197V187.85H216.694C216.16 187.85 215.746 187.983 215.454 188.25C215.167 188.51 215.024 188.846 215.024 189.256Z" fill="#905127"/>
<path d="M133.585 126.016V131.055H136.62C137.464 131.055 138.112 130.828 138.565 130.375C139.018 129.922 139.245 129.316 139.245 128.559C139.245 127.793 139.018 127.18 138.565 126.719C138.112 126.25 137.464 126.016 136.62 126.016H133.585ZM136.62 133.434H133.585V139H130.503V123.648H136.62C138.378 123.648 139.765 124.094 140.78 124.984C141.804 125.867 142.315 127.055 142.315 128.547C142.315 130.031 141.807 131.219 140.792 132.109C139.776 132.992 138.386 133.434 136.62 133.434ZM148.472 133.211V133.434C148.472 134.52 148.659 135.367 149.034 135.977C149.417 136.578 149.999 136.879 150.78 136.879C151.562 136.879 152.14 136.574 152.515 135.965C152.898 135.355 153.089 134.512 153.089 133.434V133.211C153.089 132.148 152.898 131.312 152.515 130.703C152.132 130.086 151.554 129.777 150.78 129.777C150.007 129.777 149.429 130.086 149.046 130.703C148.663 131.32 148.472 132.156 148.472 133.211ZM145.402 133.434V133.211C145.402 131.469 145.878 130.066 146.831 129.004C147.792 127.934 149.105 127.398 150.769 127.398C152.441 127.398 153.757 127.934 154.718 129.004C155.687 130.066 156.171 131.469 156.171 133.211V133.434C156.171 135.184 155.691 136.59 154.73 137.652C153.769 138.715 152.452 139.246 150.78 139.246C149.116 139.246 147.804 138.715 146.843 137.652C145.882 136.59 145.402 135.184 145.402 133.434ZM164.167 137.137V137.172C164.73 137.172 165.16 137.062 165.457 136.844C165.761 136.617 165.914 136.316 165.914 135.941C165.914 135.566 165.742 135.262 165.398 135.027C165.062 134.785 164.464 134.566 163.605 134.371C162.214 134.09 161.187 133.68 160.523 133.141C159.859 132.602 159.527 131.852 159.527 130.891C159.527 129.922 159.941 129.102 160.769 128.43C161.605 127.758 162.726 127.422 164.132 127.422C165.546 127.422 166.683 127.762 167.542 128.441C168.41 129.113 168.824 129.977 168.785 131.031L168.761 131.09H165.785C165.785 130.621 165.636 130.246 165.339 129.965C165.042 129.684 164.632 129.543 164.109 129.543C163.593 129.543 163.191 129.664 162.902 129.906C162.613 130.141 162.468 130.445 162.468 130.82C162.468 131.195 162.625 131.492 162.937 131.711C163.25 131.922 163.847 132.109 164.73 132.273C166.167 132.562 167.218 132.98 167.882 133.527C168.554 134.074 168.89 134.844 168.89 135.836C168.89 136.82 168.449 137.637 167.566 138.285C166.691 138.926 165.523 139.246 164.062 139.246C162.601 139.246 161.417 138.875 160.511 138.133C159.613 137.383 159.187 136.492 159.234 135.461L159.246 135.391H162.07C162.101 136.555 162.8 137.137 164.167 137.137ZM173.137 124.82H176.219V127.609H178.14V129.777H176.219V135.59C176.219 136.41 176.558 136.82 177.238 136.82C177.48 136.82 177.754 136.781 178.058 136.703L178.316 138.93C177.668 139.141 177.047 139.246 176.453 139.246C174.242 139.246 173.137 138.031 173.137 135.602V129.777H171.472V127.609H173.137V124.82ZM184.93 139.246C183.742 139.246 182.824 138.941 182.176 138.332C181.528 137.723 181.203 136.867 181.203 135.766C181.203 134.656 181.633 133.801 182.492 133.199C183.352 132.59 184.61 132.285 186.266 132.285H187.977V131.383C187.977 130.82 187.832 130.391 187.543 130.094C187.254 129.797 186.844 129.648 186.313 129.648C185.789 129.648 185.391 129.77 185.117 130.012C184.844 130.254 184.707 130.59 184.707 131.02L181.731 131.008V130.949C181.676 129.957 182.094 129.117 182.985 128.43C183.883 127.742 185.035 127.398 186.442 127.398C187.856 127.398 188.981 127.75 189.817 128.453C190.653 129.156 191.07 130.137 191.07 131.395V136.117C191.07 137.141 191.238 138.109 191.574 139.023H188.492C188.242 138.445 188.09 137.875 188.035 137.312C187.285 138.602 186.25 139.246 184.93 139.246ZM184.25 135.707H184.262C184.262 136.09 184.387 136.398 184.637 136.633C184.895 136.859 185.262 136.973 185.738 136.973C186.223 136.973 186.676 136.844 187.098 136.586C187.52 136.32 187.809 136.004 187.965 135.637V134.02H186.254C185.613 134.02 185.117 134.18 184.766 134.5C184.422 134.812 184.25 135.215 184.25 135.707ZM197.11 127.586L199.032 134.746L199.231 135.801H199.29L199.5 134.746L201.375 127.586H204.598L200.719 139H197.778L193.887 127.586H197.11ZM210.708 134.219V139H207.626V122.547H210.708V131.875H211.458L214.106 127.586H217.68L214.024 132.754L218.231 139H214.704L211.552 134.219H210.708ZM227.294 131.934C227.294 131.262 227.138 130.738 226.825 130.363C226.521 129.98 226.075 129.789 225.489 129.789C224.903 129.789 224.443 130 224.107 130.422C223.771 130.844 223.564 131.422 223.485 132.156L223.521 132.215H227.294V131.934ZM225.735 139.258C224.095 139.258 222.778 138.738 221.786 137.699C220.802 136.66 220.31 135.312 220.31 133.656V133.234C220.31 132.102 220.517 131.094 220.931 130.211C221.353 129.328 221.954 128.641 222.735 128.148C223.525 127.648 224.435 127.398 225.466 127.398C226.997 127.398 228.189 127.859 229.04 128.781C229.892 129.695 230.318 130.953 230.318 132.555V134.23H223.509L223.485 134.301C223.54 135.074 223.794 135.699 224.247 136.176C224.7 136.645 225.278 136.879 225.982 136.879C226.685 136.879 227.259 136.816 227.704 136.691C228.15 136.559 228.657 136.336 229.228 136.023L230.06 137.922V137.934C229.568 138.34 228.946 138.664 228.196 138.906C227.454 139.141 226.634 139.258 225.735 139.258Z" fill="#905127"/>
<rect x="292.5" y="173.5" width="25" height="25" fill="#D9D9D9" stroke="#905127"/>
<path d="M27.2684 224.207L30.032 233.602L30.1883 234.295H30.2469L30.3934 233.611L33.1766 224.207H35.8816L31.5359 237H28.8992L24.5535 224.207H27.2684ZM43.8637 231.111C43.8637 230.551 43.7335 230.115 43.473 229.803C43.2191 229.484 42.848 229.324 42.3598 229.324C41.8715 229.324 41.4874 229.5 41.2074 229.852C40.9275 230.203 40.7549 230.685 40.6898 231.297L40.7191 231.346H43.8637V231.111ZM42.5648 237.215C41.1977 237.215 40.1006 236.782 39.2738 235.916C38.4535 235.05 38.0434 233.927 38.0434 232.547V232.195C38.0434 231.251 38.2159 230.411 38.5609 229.676C38.9125 228.94 39.4138 228.367 40.0648 227.957C40.7224 227.54 41.4809 227.332 42.3402 227.332C43.6163 227.332 44.6091 227.716 45.3187 228.484C46.0284 229.246 46.3832 230.294 46.3832 231.629V233.025H40.7094L40.6898 233.084C40.7354 233.729 40.947 234.249 41.3246 234.646C41.7022 235.037 42.184 235.232 42.7699 235.232C43.3559 235.232 43.8344 235.18 44.2055 235.076C44.5766 234.965 44.9997 234.78 45.475 234.52L46.1684 236.102V236.111C45.7582 236.45 45.2406 236.72 44.6156 236.922C43.9971 237.117 43.3135 237.215 42.5648 237.215ZM51.9727 223.289V237H49.4043V223.289H51.9727ZM58.1773 227.488V237H55.609V227.488H58.1773ZM58.1773 223.289V225.213H55.609V223.289H58.1773ZM63.7473 232.146V232.42C63.7473 234.301 64.3658 235.242 65.6027 235.242C66.065 235.242 66.4328 235.109 66.7062 234.842C66.9797 234.575 67.1164 234.22 67.1164 233.777H69.4504L69.4699 233.826C69.496 234.79 69.1379 235.597 68.3957 236.248C67.6535 236.893 66.7225 237.215 65.6027 237.215C64.2095 237.215 63.1223 236.779 62.341 235.906C61.5663 235.027 61.1789 233.865 61.1789 232.42V232.156C61.1789 230.711 61.5663 229.549 62.341 228.67C63.1223 227.785 64.2095 227.342 65.6027 227.342C66.7811 227.342 67.7251 227.677 68.4348 228.348C69.1509 229.012 69.496 229.891 69.4699 230.984L69.4602 231.033H67.1164C67.1164 230.532 66.9797 230.122 66.7062 229.803C66.4328 229.477 66.065 229.314 65.6027 229.314C64.3658 229.314 63.7473 230.258 63.7473 232.146ZM68.8352 222.273V222.371L66.1789 224.842H64.5676L61.9211 222.352V222.273H64.0891L65.3781 223.533L66.6672 222.273H68.8352ZM75.1766 227.488V237H72.6082V227.488H75.1766ZM75.1766 223.289V225.213H72.6082V223.289H75.1766ZM83.8812 227.312C84.8643 227.312 85.6195 227.622 86.1469 228.24C86.6742 228.859 86.9379 229.799 86.9379 231.062V237H84.3598V231.062C84.3598 230.438 84.2328 229.988 83.9789 229.715C83.7315 229.441 83.3409 229.305 82.807 229.305C82.1299 229.305 81.5961 229.568 81.2055 230.096V237H78.6371V227.488L81.0395 227.498L81.1566 228.865C81.8142 227.83 82.7224 227.312 83.8812 227.312ZM92.8594 237.205C91.8698 237.205 91.1048 236.951 90.5645 236.443C90.0241 235.936 89.7539 235.223 89.7539 234.305C89.7539 233.38 90.112 232.667 90.8281 232.166C91.5443 231.658 92.5924 231.404 93.9727 231.404H95.3984V230.652C95.3984 230.184 95.278 229.826 95.0371 229.578C94.7962 229.331 94.4544 229.207 94.0117 229.207C93.5755 229.207 93.2435 229.308 93.0156 229.51C92.7878 229.712 92.6738 229.992 92.6738 230.35L90.1934 230.34V230.291C90.1478 229.464 90.4961 228.764 91.2383 228.191C91.987 227.618 92.9473 227.332 94.1191 227.332C95.2975 227.332 96.235 227.625 96.9316 228.211C97.6283 228.797 97.9766 229.614 97.9766 230.662V234.598C97.9766 235.451 98.1165 236.258 98.3965 237.02H95.8281C95.6198 236.538 95.4928 236.062 95.4473 235.594C94.8223 236.668 93.9596 237.205 92.8594 237.205ZM92.293 234.256H92.3027C92.3027 234.575 92.4069 234.832 92.6152 235.027C92.8301 235.216 93.1361 235.311 93.5332 235.311C93.9368 235.311 94.3145 235.203 94.666 234.988C95.0176 234.767 95.2585 234.503 95.3887 234.197V232.85H93.9629C93.429 232.85 93.0156 232.983 92.7227 233.25C92.4362 233.51 92.293 233.846 92.293 234.256ZM108.267 225.184H110.835V227.508H112.437V229.314H110.835V234.158C110.835 234.842 111.118 235.184 111.685 235.184C111.887 235.184 112.114 235.151 112.368 235.086L112.583 236.941C112.043 237.117 111.525 237.205 111.03 237.205C109.188 237.205 108.267 236.193 108.267 234.168V229.314H106.88V227.508H108.267V225.184ZM120.995 231.111C120.995 230.551 120.865 230.115 120.604 229.803C120.35 229.484 119.979 229.324 119.491 229.324C119.003 229.324 118.619 229.5 118.339 229.852C118.059 230.203 117.886 230.685 117.821 231.297L117.85 231.346H120.995V231.111ZM119.696 237.215C118.329 237.215 117.232 236.782 116.405 235.916C115.585 235.05 115.175 233.927 115.175 232.547V232.195C115.175 231.251 115.347 230.411 115.692 229.676C116.044 228.94 116.545 228.367 117.196 227.957C117.854 227.54 118.612 227.332 119.471 227.332C120.748 227.332 121.74 227.716 122.45 228.484C123.16 229.246 123.514 230.294 123.514 231.629V233.025H117.841L117.821 233.084C117.867 233.729 118.078 234.249 118.456 234.646C118.833 235.037 119.315 235.232 119.901 235.232C120.487 235.232 120.966 235.18 121.337 235.076C121.708 234.965 122.131 234.78 122.606 234.52L123.3 236.102V236.111C122.889 236.45 122.372 236.72 121.747 236.922C121.128 237.117 120.445 237.215 119.696 237.215ZM128.977 233.016V237H126.409V223.289H128.977V231.062H129.602L131.809 227.488H134.787L131.741 231.795L135.246 237H132.307L129.68 233.016H128.977ZM141.139 235.447V235.477C141.607 235.477 141.965 235.385 142.213 235.203C142.467 235.014 142.594 234.764 142.594 234.451C142.594 234.139 142.451 233.885 142.164 233.689C141.884 233.488 141.386 233.305 140.67 233.143C139.511 232.908 138.655 232.566 138.102 232.117C137.548 231.668 137.271 231.043 137.271 230.242C137.271 229.435 137.617 228.751 138.307 228.191C139.003 227.632 139.938 227.352 141.109 227.352C142.288 227.352 143.235 227.635 143.951 228.201C144.674 228.761 145.019 229.48 144.986 230.359L144.967 230.408H142.486C142.486 230.018 142.363 229.705 142.115 229.471C141.868 229.236 141.526 229.119 141.09 229.119C140.66 229.119 140.325 229.22 140.084 229.422C139.843 229.617 139.723 229.871 139.723 230.184C139.723 230.496 139.853 230.743 140.113 230.926C140.374 231.102 140.872 231.258 141.607 231.395C142.805 231.635 143.681 231.984 144.234 232.439C144.794 232.895 145.074 233.536 145.074 234.363C145.074 235.184 144.706 235.864 143.971 236.404C143.242 236.938 142.268 237.205 141.051 237.205C139.833 237.205 138.847 236.896 138.092 236.277C137.343 235.652 136.988 234.91 137.027 234.051L137.037 233.992H139.391C139.417 234.962 139.999 235.447 141.139 235.447ZM148.613 225.184H151.181V227.508H152.783V229.314H151.181V234.158C151.181 234.842 151.464 235.184 152.031 235.184C152.233 235.184 152.461 235.151 152.714 235.086L152.929 236.941C152.389 237.117 151.871 237.205 151.377 237.205C149.534 237.205 148.613 236.193 148.613 234.168V229.314H147.226V227.508H148.613V225.184ZM158.441 237.205C157.451 237.205 156.686 236.951 156.146 236.443C155.605 235.936 155.335 235.223 155.335 234.305C155.335 233.38 155.693 232.667 156.409 232.166C157.126 231.658 158.174 231.404 159.554 231.404H160.98V230.652C160.98 230.184 160.859 229.826 160.618 229.578C160.377 229.331 160.036 229.207 159.593 229.207C159.157 229.207 158.825 229.308 158.597 229.51C158.369 229.712 158.255 229.992 158.255 230.35L155.775 230.34V230.291C155.729 229.464 156.077 228.764 156.82 228.191C157.568 227.618 158.529 227.332 159.7 227.332C160.879 227.332 161.816 227.625 162.513 228.211C163.21 228.797 163.558 229.614 163.558 230.662V234.598C163.558 235.451 163.698 236.258 163.978 237.02H161.409C161.201 236.538 161.074 236.062 161.029 235.594C160.404 236.668 159.541 237.205 158.441 237.205ZM157.874 234.256H157.884C157.884 234.575 157.988 234.832 158.196 235.027C158.411 235.216 158.717 235.311 159.114 235.311C159.518 235.311 159.896 235.203 160.247 234.988C160.599 234.767 160.84 234.503 160.97 234.197V232.85H159.544C159.01 232.85 158.597 232.983 158.304 233.25C158.017 233.51 157.874 233.846 157.874 234.256Z" fill="#905127"/>
<rect x="234.5" y="228.5" width="97" height="4" fill="#F59D4B" stroke="#F59D4B"/>
<circle cx="234" cy="231" r="8.5" fill="#905127" stroke="#905127"/>
<rect x="73.5" y="254.5" width="134" height="28" rx="14" fill="#D9D9D9" stroke="#F59D4B" stroke-width="3"/>
<rect x="210" y="253" width="137" height="31" rx="15.5" fill="#D9D9D9"/>
<path d="M110.846 274.01H108.277V261.217H113.111C114.576 261.217 115.719 261.549 116.539 262.213C117.359 262.877 117.77 263.805 117.77 264.996C117.77 266.292 117.089 267.239 115.729 267.838C117.148 268.261 117.857 269.277 117.857 270.885V271.832C117.857 272.242 117.91 272.633 118.014 273.004C118.118 273.368 118.277 273.639 118.492 273.814V274H115.846C115.475 273.701 115.289 272.971 115.289 271.812V270.904C115.289 270.266 115.113 269.771 114.762 269.42C114.417 269.062 113.925 268.883 113.287 268.883L110.846 268.893V274.01ZM110.846 263.18V266.91H113.062C114.495 266.91 115.211 266.305 115.211 265.094C115.211 264.495 115.032 264.026 114.674 263.688C114.316 263.349 113.795 263.18 113.111 263.18H110.846ZM123.545 269.176V269.361C123.545 270.266 123.701 270.973 124.013 271.48C124.332 271.982 124.817 272.232 125.468 272.232C126.119 272.232 126.601 271.979 126.914 271.471C127.233 270.963 127.392 270.26 127.392 269.361V269.176C127.392 268.29 127.233 267.594 126.914 267.086C126.595 266.572 126.113 266.314 125.468 266.314C124.824 266.314 124.342 266.572 124.023 267.086C123.704 267.6 123.545 268.297 123.545 269.176ZM120.986 269.361V269.176C120.986 267.724 121.383 266.555 122.177 265.67C122.978 264.778 124.072 264.332 125.459 264.332C126.852 264.332 127.949 264.778 128.75 265.67C129.557 266.555 129.961 267.724 129.961 269.176V269.361C129.961 270.82 129.56 271.992 128.759 272.877C127.959 273.762 126.862 274.205 125.468 274.205C124.082 274.205 122.988 273.762 122.187 272.877C121.386 271.992 120.986 270.82 120.986 269.361ZM138.958 269.527V269.342C138.958 268.365 138.815 267.62 138.529 267.105C138.249 266.591 137.793 266.334 137.161 266.334C136.374 266.334 135.82 266.656 135.501 267.301V271.324C135.82 271.917 136.38 272.213 137.181 272.213C137.819 272.213 138.275 271.992 138.548 271.549C138.821 271.1 138.958 270.426 138.958 269.527ZM141.517 269.342V269.527C141.517 270.979 141.198 272.122 140.56 272.955C139.922 273.788 139.01 274.205 137.825 274.205C136.751 274.205 135.921 273.749 135.335 272.838L135.14 274.02H132.943V260.309H135.501V265.523C136.061 264.729 136.829 264.332 137.806 264.332C139.004 264.332 139.922 264.781 140.56 265.68C141.198 266.572 141.517 267.792 141.517 269.342ZM146.657 269.176V269.361C146.657 270.266 146.813 270.973 147.126 271.48C147.445 271.982 147.93 272.232 148.581 272.232C149.232 272.232 149.714 271.979 150.026 271.471C150.345 270.963 150.505 270.26 150.505 269.361V269.176C150.505 268.29 150.345 267.594 150.026 267.086C149.707 266.572 149.225 266.314 148.581 266.314C147.936 266.314 147.455 266.572 147.136 267.086C146.817 267.6 146.657 268.297 146.657 269.176ZM144.098 269.361V269.176C144.098 267.724 144.496 266.555 145.29 265.67C146.091 264.778 147.184 264.332 148.571 264.332C149.964 264.332 151.061 264.778 151.862 265.67C152.669 266.555 153.073 267.724 153.073 269.176V269.361C153.073 270.82 152.673 271.992 151.872 272.877C151.071 273.762 149.974 274.205 148.581 274.205C147.194 274.205 146.1 273.762 145.3 272.877C144.499 271.992 144.098 270.82 144.098 269.361ZM156.534 262.184H159.102V264.508H160.704V266.314H159.102V271.158C159.102 271.842 159.385 272.184 159.952 272.184C160.153 272.184 160.381 272.151 160.635 272.086L160.85 273.941C160.31 274.117 159.792 274.205 159.297 274.205C157.455 274.205 156.534 273.193 156.534 271.168V266.314H155.147V264.508H156.534V262.184ZM165.902 269.176V269.361C165.902 270.266 166.059 270.973 166.371 271.48C166.69 271.982 167.175 272.232 167.826 272.232C168.477 272.232 168.959 271.979 169.271 271.471C169.59 270.963 169.75 270.26 169.75 269.361V269.176C169.75 268.29 169.59 267.594 169.271 267.086C168.952 266.572 168.471 266.314 167.826 266.314C167.182 266.314 166.7 266.572 166.381 267.086C166.062 267.6 165.902 268.297 165.902 269.176ZM163.344 269.361V269.176C163.344 267.724 163.741 266.555 164.535 265.67C165.336 264.778 166.43 264.332 167.816 264.332C169.21 264.332 170.307 264.778 171.107 265.67C171.915 266.555 172.318 267.724 172.318 269.176V269.361C172.318 270.82 171.918 271.992 171.117 272.877C170.316 273.762 169.219 274.205 167.826 274.205C166.439 274.205 165.346 273.762 164.545 272.877C163.744 271.992 163.344 270.82 163.344 269.361Z" fill="#905127"/>
<path d="M224.187 268.775V266.451C224.187 265.436 223.936 264.615 223.435 263.99C222.933 263.359 222.25 263.043 221.384 263.043C220.518 263.043 219.841 263.355 219.353 263.98C218.871 264.599 218.63 265.423 218.63 266.451V268.775C218.63 269.811 218.874 270.644 219.362 271.275C219.857 271.9 220.534 272.213 221.394 272.213C222.26 272.213 222.94 271.9 223.435 271.275C223.936 270.644 224.187 269.811 224.187 268.775ZM226.745 266.471V268.775C226.745 270.364 226.247 271.666 225.251 272.682C224.262 273.697 222.973 274.205 221.384 274.205C220.342 274.205 219.418 273.974 218.611 273.512C217.803 273.043 217.178 272.398 216.736 271.578C216.293 270.751 216.071 269.817 216.071 268.775V266.471C216.071 264.889 216.563 263.59 217.546 262.574C218.529 261.552 219.808 261.041 221.384 261.041C222.966 261.041 224.255 261.552 225.251 262.574C226.247 263.59 226.745 264.889 226.745 266.471ZM234.815 274.586C233.819 274.586 233.048 274.225 232.501 273.502V278.062H229.942V264.898H232.257L232.403 266.021C232.989 265.156 233.793 264.723 234.815 264.723C235.981 264.723 236.889 265.175 237.54 266.08C238.197 266.985 238.526 268.202 238.526 269.732L238.516 269.918C238.516 271.344 238.188 272.48 237.53 273.326C236.879 274.166 235.974 274.586 234.815 274.586ZM235.958 269.918V269.732C235.958 268.795 235.805 268.059 235.499 267.525C235.193 266.985 234.74 266.715 234.141 266.715C233.38 266.715 232.836 267.021 232.511 267.633V271.793C232.83 272.346 233.38 272.623 234.161 272.623C234.766 272.623 235.216 272.389 235.509 271.92C235.808 271.445 235.958 270.777 235.958 269.918ZM247.026 268.111C247.026 267.551 246.896 267.115 246.635 266.803C246.381 266.484 246.01 266.324 245.522 266.324C245.034 266.324 244.649 266.5 244.37 266.852C244.09 267.203 243.917 267.685 243.852 268.297L243.881 268.346H247.026V268.111ZM245.727 274.215C244.36 274.215 243.263 273.782 242.436 272.916C241.616 272.05 241.205 270.927 241.205 269.547V269.195C241.205 268.251 241.378 267.411 241.723 266.676C242.075 265.94 242.576 265.367 243.227 264.957C243.885 264.54 244.643 264.332 245.502 264.332C246.778 264.332 247.771 264.716 248.481 265.484C249.19 266.246 249.545 267.294 249.545 268.629V270.025H243.871L243.852 270.084C243.898 270.729 244.109 271.249 244.487 271.646C244.864 272.037 245.346 272.232 245.932 272.232C246.518 272.232 246.996 272.18 247.368 272.076C247.739 271.965 248.162 271.78 248.637 271.52L249.33 273.102V273.111C248.92 273.45 248.403 273.72 247.778 273.922C247.159 274.117 246.476 274.215 245.727 274.215ZM257.635 264.312C258.618 264.312 259.373 264.622 259.9 265.24C260.428 265.859 260.691 266.799 260.691 268.062V274H258.113V268.062C258.113 267.438 257.986 266.988 257.732 266.715C257.485 266.441 257.094 266.305 256.561 266.305C255.883 266.305 255.35 266.568 254.959 267.096V274H252.391V264.488L254.793 264.498L254.91 265.865C255.568 264.83 256.476 264.312 257.635 264.312ZM268.468 263.18H266.769V272.027H268.468C269.38 272.027 270.096 271.721 270.617 271.109C271.144 270.497 271.408 269.684 271.408 268.668V266.529C271.408 265.52 271.144 264.71 270.617 264.098C270.096 263.486 269.38 263.18 268.468 263.18ZM268.595 274H264.201V261.207H268.595C270.177 261.207 271.47 261.705 272.472 262.701C273.481 263.691 273.986 264.973 273.986 266.549V268.668C273.986 270.243 273.481 271.526 272.472 272.516C271.47 273.505 270.177 274 268.595 274ZM277.339 276.197L277.827 276.246C278.543 276.246 279.045 275.882 279.331 275.152L279.624 274.42L276.255 264.918H279.009L280.611 270.436L280.718 270.963H280.767L282.583 264.918H285.347L281.489 275.855C281.34 276.227 281.18 276.546 281.011 276.812C280.848 277.079 280.646 277.33 280.405 277.564C279.911 278.033 279.214 278.268 278.316 278.268C278.036 278.268 277.612 278.199 277.046 278.062L277.339 276.197ZM291.473 272.447V272.477C291.942 272.477 292.3 272.385 292.548 272.203C292.802 272.014 292.929 271.764 292.929 271.451C292.929 271.139 292.785 270.885 292.499 270.689C292.219 270.488 291.721 270.305 291.005 270.143C289.846 269.908 288.99 269.566 288.436 269.117C287.883 268.668 287.606 268.043 287.606 267.242C287.606 266.435 287.951 265.751 288.641 265.191C289.338 264.632 290.272 264.352 291.444 264.352C292.623 264.352 293.57 264.635 294.286 265.201C295.009 265.761 295.354 266.48 295.321 267.359L295.302 267.408H292.821C292.821 267.018 292.697 266.705 292.45 266.471C292.203 266.236 291.861 266.119 291.425 266.119C290.995 266.119 290.66 266.22 290.419 266.422C290.178 266.617 290.057 266.871 290.057 267.184C290.057 267.496 290.188 267.743 290.448 267.926C290.708 268.102 291.207 268.258 291.942 268.395C293.14 268.635 294.016 268.984 294.569 269.439C295.129 269.895 295.409 270.536 295.409 271.363C295.409 272.184 295.041 272.864 294.305 273.404C293.576 273.938 292.603 274.205 291.386 274.205C290.168 274.205 289.182 273.896 288.427 273.277C287.678 272.652 287.323 271.91 287.362 271.051L287.372 270.992H289.725C289.751 271.962 290.334 272.447 291.473 272.447ZM301.164 260.289V274H298.596V260.289H301.164ZM310.191 268.111C310.191 267.551 310.061 267.115 309.801 266.803C309.547 266.484 309.176 266.324 308.688 266.324C308.199 266.324 307.815 266.5 307.535 266.852C307.255 267.203 307.083 267.685 307.018 268.297L307.047 268.346H310.191V268.111ZM308.893 274.215C307.525 274.215 306.428 273.782 305.602 272.916C304.781 272.05 304.371 270.927 304.371 269.547V269.195C304.371 268.251 304.544 267.411 304.889 266.676C305.24 265.94 305.742 265.367 306.393 264.957C307.05 264.54 307.809 264.332 308.668 264.332C309.944 264.332 310.937 264.716 311.646 265.484C312.356 266.246 312.711 267.294 312.711 268.629V270.025H307.037L307.018 270.084C307.063 270.729 307.275 271.249 307.652 271.646C308.03 272.037 308.512 272.232 309.098 272.232C309.684 272.232 310.162 272.18 310.533 272.076C310.904 271.965 311.327 271.78 311.803 271.52L312.496 273.102V273.111C312.086 273.45 311.568 273.72 310.943 273.922C310.325 274.117 309.641 274.215 308.893 274.215ZM317.754 264.488L319.179 267.516H319.238L320.693 264.488H323.593L320.732 269.195L323.691 274H320.8L319.238 270.846L317.685 274H314.785L317.744 269.195L314.873 264.488H317.754ZM328.9 264.488V274H326.331V264.488H328.9ZM328.9 260.289V262.213H326.331V260.289H328.9ZM334.538 269.146V269.42C334.538 271.301 335.156 272.242 336.393 272.242C336.856 272.242 337.223 272.109 337.497 271.842C337.77 271.575 337.907 271.22 337.907 270.777H340.241L340.261 270.826C340.287 271.79 339.929 272.597 339.186 273.248C338.444 273.893 337.513 274.215 336.393 274.215C335 274.215 333.913 273.779 333.132 272.906C332.357 272.027 331.97 270.865 331.97 269.42V269.156C331.97 267.711 332.357 266.549 333.132 265.67C333.913 264.785 335 264.342 336.393 264.342C337.572 264.342 338.516 264.677 339.225 265.348C339.942 266.012 340.287 266.891 340.261 267.984L340.251 268.033H337.907C337.907 267.532 337.77 267.122 337.497 266.803C337.223 266.477 336.856 266.314 336.393 266.314C335.156 266.314 334.538 267.258 334.538 269.146Z" fill="#975C34"/>
<rect x="119.5" y="324.5" width="123" height="32" rx="16" fill="#F59D4B" stroke="#905127"/>
<path d="M154.041 345.262H154.061C154.751 345.262 155.281 345.122 155.652 344.842C156.03 344.555 156.219 344.168 156.219 343.68C156.219 343.185 156.046 342.791 155.701 342.498C155.363 342.199 154.751 341.915 153.865 341.648C152.257 341.186 151.082 340.652 150.34 340.047C149.604 339.435 149.236 338.615 149.236 337.586C149.236 336.551 149.682 335.701 150.574 335.037C151.466 334.373 152.609 334.041 154.002 334.041C155.402 334.041 156.544 334.412 157.43 335.154C158.315 335.89 158.742 336.814 158.709 337.928L158.699 337.977H156.209C156.209 337.371 156.007 336.889 155.604 336.531C155.206 336.173 154.663 335.994 153.973 335.994C153.283 335.994 152.745 336.144 152.361 336.443C151.984 336.736 151.795 337.114 151.795 337.576C151.795 338.032 151.987 338.4 152.371 338.68C152.762 338.953 153.465 339.249 154.48 339.568C155.932 339.972 157.01 340.499 157.713 341.15C158.423 341.795 158.777 342.648 158.777 343.709C158.777 344.77 158.348 345.62 157.488 346.258C156.635 346.889 155.49 347.205 154.051 347.205C153.107 347.205 152.244 347.049 151.463 346.736C150.682 346.417 150.053 345.942 149.578 345.311C149.103 344.679 148.872 343.947 148.885 343.113L148.904 343.055H151.395C151.395 344.526 152.277 345.262 154.041 345.262ZM166.769 347.586C165.773 347.586 165.002 347.225 164.455 346.502V351.062H161.896V337.898H164.211L164.357 339.021C164.943 338.156 165.747 337.723 166.769 337.723C167.935 337.723 168.843 338.175 169.494 339.08C170.151 339.985 170.48 341.202 170.48 342.732L170.47 342.918C170.47 344.344 170.142 345.48 169.484 346.326C168.833 347.166 167.928 347.586 166.769 347.586ZM167.912 342.918V342.732C167.912 341.795 167.759 341.059 167.453 340.525C167.147 339.985 166.694 339.715 166.095 339.715C165.334 339.715 164.79 340.021 164.464 340.633V344.793C164.783 345.346 165.334 345.623 166.115 345.623C166.72 345.623 167.17 345.389 167.462 344.92C167.762 344.445 167.912 343.777 167.912 342.918ZM176.021 347H173.462V337.488H175.845L175.952 338.895C176.441 337.84 177.14 337.312 178.052 337.312C178.273 337.312 178.501 337.348 178.736 337.42L178.462 339.695L177.525 339.666C176.802 339.666 176.301 339.969 176.021 340.574V347ZM186.688 341.111C186.688 340.551 186.558 340.115 186.298 339.803C186.044 339.484 185.673 339.324 185.184 339.324C184.696 339.324 184.312 339.5 184.032 339.852C183.752 340.203 183.58 340.685 183.514 341.297L183.544 341.346H186.688V341.111ZM185.389 347.215C184.022 347.215 182.925 346.782 182.098 345.916C181.278 345.05 180.868 343.927 180.868 342.547V342.195C180.868 341.251 181.04 340.411 181.386 339.676C181.737 338.94 182.238 338.367 182.889 337.957C183.547 337.54 184.305 337.332 185.165 337.332C186.441 337.332 187.434 337.716 188.143 338.484C188.853 339.246 189.208 340.294 189.208 341.629V343.025H183.534L183.514 343.084C183.56 343.729 183.772 344.249 184.149 344.646C184.527 345.037 185.009 345.232 185.595 345.232C186.18 345.232 186.659 345.18 187.03 345.076C187.401 344.965 187.824 344.78 188.3 344.52L188.993 346.102V346.111C188.583 346.45 188.065 346.72 187.44 346.922C186.822 347.117 186.138 347.215 185.389 347.215ZM200.159 340.223L200.178 340.75V347H197.62V341.238C197.62 340.548 197.506 340.053 197.278 339.754C197.05 339.454 196.695 339.305 196.213 339.305C195.536 339.305 195.019 339.559 194.661 340.066V347H192.102V337.488H194.495L194.602 338.748C195.233 337.791 196.161 337.312 197.385 337.312C198.609 337.312 199.442 337.856 199.885 338.943C200.504 337.856 201.435 337.312 202.678 337.312C203.642 337.312 204.387 337.641 204.914 338.299C205.442 338.956 205.705 339.936 205.705 341.238V347H203.137V341.238C203.137 340.535 203.023 340.037 202.795 339.744C202.574 339.451 202.222 339.305 201.741 339.305C201.018 339.305 200.491 339.611 200.159 340.223ZM211.783 337.488V347H209.215V337.488H211.783ZM211.783 333.289V335.213H209.215V333.289H211.783Z" fill="white"/>
<rect x="28.5" y="124.5" width="35" height="33.8996" rx="16.9498" fill="#F9C27E" stroke="#905127"/>
<path d="M40.4899 141.148L48.5715 131.835" stroke="#905127" stroke-width="3" stroke-linecap="round"/>
<path d="M40.4899 141.631L48.5708 150.945" stroke="#905127" stroke-width="3" stroke-linecap="round"/>
</g>
<defs>
<clipPath id="clip0_53_60">
<rect width="360" height="634" fill="white"/>
</clipPath>
</defs>
</svg>
