<svg width="32" height="30" viewBox="0 0 32 30" fill="none" xmlns="http://www.w3.org/2000/svg">
<g clip-path="url(#clip0_30_275)">
<path d="M16 18.75C18.2092 18.75 20 17.0711 20 15C20 12.9289 18.2092 11.25 16 11.25C13.7909 11.25 12 12.9289 12 15C12 17.0711 13.7909 18.75 16 18.75Z" stroke="#905127" stroke-width="3" stroke-linecap="round" stroke-linejoin="round"/>
<path d="M25.8667 18.75C25.6892 19.127 25.6363 19.5452 25.7147 19.9507C25.7931 20.3562 25.9993 20.7304 26.3067 21.025L26.3867 21.1C26.6346 21.3322 26.8313 21.6079 26.9655 21.9114C27.0997 22.2149 27.1688 22.5402 27.1688 22.8688C27.1688 23.1973 27.0997 23.5226 26.9655 23.8261C26.8313 24.1296 26.6346 24.4053 26.3867 24.6375C26.139 24.8699 25.8449 25.0543 25.5212 25.1802C25.1975 25.306 24.8505 25.3707 24.5 25.3707C24.1496 25.3707 23.8026 25.306 23.4789 25.1802C23.1551 25.0543 22.861 24.8699 22.6134 24.6375L22.5334 24.5625C22.2191 24.2743 21.82 24.081 21.3875 24.0075C20.955 23.934 20.5089 23.9836 20.1067 24.15C19.7123 24.3085 19.376 24.5716 19.1391 24.9069C18.9022 25.2423 18.7751 25.6353 18.7734 26.0375V26.25C18.7734 26.913 18.4924 27.5489 17.9923 28.0178C17.4922 28.4866 16.814 28.75 16.1067 28.75C15.3995 28.75 14.7212 28.4866 14.2211 28.0178C13.721 27.5489 13.44 26.913 13.44 26.25V26.1375C13.4297 25.7238 13.2869 25.3225 13.0301 24.9859C12.7732 24.6493 12.4144 24.3929 12 24.25C11.5979 24.0836 11.1518 24.034 10.7193 24.1075C10.2867 24.181 9.88761 24.3743 9.57337 24.6625L9.49337 24.7375C9.24571 24.9699 8.95161 25.1543 8.62788 25.2802C8.30415 25.406 7.95715 25.4707 7.60671 25.4707C7.25627 25.4707 6.90926 25.406 6.58553 25.2802C6.2618 25.1543 5.9677 24.9699 5.72004 24.7375C5.4721 24.5053 5.27541 24.2296 5.14121 23.9261C5.00702 23.6226 4.93794 23.2973 4.93794 22.9688C4.93794 22.6402 5.00702 22.3149 5.14121 22.0114C5.27541 21.7079 5.4721 21.4322 5.72004 21.2L5.80004 21.125C6.10742 20.8304 6.31362 20.4562 6.39205 20.0507C6.47047 19.6452 6.41753 19.227 6.24004 18.85C6.07102 18.4803 5.79038 18.165 5.43266 17.9429C5.07494 17.7208 4.65576 17.6016 4.22671 17.6H4.00004C3.2928 17.6 2.61452 17.3366 2.11442 16.8678C1.61433 16.3989 1.33337 15.763 1.33337 15.1C1.33337 14.437 1.61433 13.8011 2.11442 13.3322C2.61452 12.8634 3.2928 12.6 4.00004 12.6H4.12004C4.56137 12.5903 4.98938 12.4564 5.34844 12.2156C5.7075 11.9749 5.981 11.6384 6.13337 11.25C6.31086 10.873 6.36381 10.4548 6.28538 10.0493C6.20696 9.64377 6.00076 9.2696 5.69337 8.975L5.61337 8.9C5.36544 8.66782 5.16875 8.3921 5.03455 8.0886C4.90035 7.78511 4.83128 7.45979 4.83128 7.13125C4.83128 6.80271 4.90035 6.47739 5.03455 6.1739C5.16875 5.8704 5.36544 5.59468 5.61337 5.3625C5.86104 5.13006 6.15514 4.94566 6.47887 4.81985C6.80259 4.69404 7.1496 4.62928 7.50004 4.62928C7.85048 4.62928 8.19749 4.69404 8.52121 4.81985C8.84494 4.94566 9.13905 5.13006 9.38671 5.3625L9.46671 5.4375C9.78095 5.72567 10.1801 5.91898 10.6126 5.99251C11.0451 6.06603 11.4912 6.01639 11.8934 5.85H12C12.3944 5.69155 12.7307 5.42844 12.9676 5.09308C13.2045 4.75772 13.3317 4.36473 13.3334 3.9625V3.75C13.3334 3.08696 13.6143 2.45107 14.1144 1.98223C14.6145 1.51339 15.2928 1.25 16 1.25C16.7073 1.25 17.3856 1.51339 17.8857 1.98223C18.3858 2.45107 18.6667 3.08696 18.6667 3.75V3.8625C18.6684 4.26473 18.7956 4.65772 19.0325 4.99308C19.2694 5.32844 19.6057 5.59155 20 5.75C20.4022 5.91639 20.8483 5.96603 21.2808 5.89251C21.7134 5.81898 22.1125 5.62567 22.4267 5.3375L22.5067 5.2625C22.7544 5.03006 23.0485 4.84566 23.3722 4.71985C23.6959 4.59404 24.0429 4.52928 24.3934 4.52928C24.7438 4.52928 25.0908 4.59404 25.4145 4.71985C25.7383 4.84566 26.0324 5.03006 26.28 5.2625C26.528 5.49468 26.7247 5.7704 26.8589 6.0739C26.9931 6.37739 27.0621 6.70271 27.0621 7.03125C27.0621 7.35979 26.9931 7.68511 26.8589 7.9886C26.7247 8.2921 26.528 8.56782 26.28 8.8L26.2 8.875C25.8927 9.1696 25.6865 9.54377 25.608 9.94926C25.5296 10.3548 25.5826 10.773 25.76 11.15V11.25C25.9291 11.6197 26.2097 11.935 26.5674 12.1571C26.9251 12.3792 27.3443 12.4984 27.7734 12.5H28C28.7073 12.5 29.3856 12.7634 29.8857 13.2322C30.3858 13.7011 30.6667 14.337 30.6667 15C30.6667 15.663 30.3858 16.2989 29.8857 16.7678C29.3856 17.2366 28.7073 17.5 28 17.5H27.88C27.451 17.5016 27.0318 17.6208 26.6741 17.8429C26.3164 18.065 26.0357 18.3803 25.8667 18.75Z" stroke="#905127" stroke-width="3" stroke-linecap="round" stroke-linejoin="round"/>
</g>
<defs>
<clipPath id="clip0_30_275">
<rect width="32" height="30" fill="white"/>
</clipPath>
</defs>
</svg>
