<svg width="64" height="19" viewBox="0 0 64 19" fill="none" xmlns="http://www.w3.org/2000/svg">
<path d="M6.04102 12.2617H6.06055C6.75065 12.2617 7.28125 12.1217 7.65234 11.8418C8.02995 11.5553 8.21875 11.168 8.21875 10.6797C8.21875 10.1849 8.04622 9.79102 7.70117 9.49805C7.36263 9.19857 6.75065 8.91536 5.86523 8.64844C4.25716 8.1862 3.08203 7.65234 2.33984 7.04688C1.60417 6.4349 1.23633 5.61458 1.23633 4.58594C1.23633 3.55078 1.68229 2.70117 2.57422 2.03711C3.46615 1.37305 4.60872 1.04102 6.00195 1.04102C7.40169 1.04102 8.54427 1.41211 9.42969 2.1543C10.3151 2.88997 10.7415 3.81445 10.709 4.92773L10.6992 4.97656H8.20898C8.20898 4.37109 8.00716 3.88932 7.60352 3.53125C7.20638 3.17318 6.66276 2.99414 5.97266 2.99414C5.28255 2.99414 4.74544 3.14388 4.36133 3.44336C3.98372 3.73633 3.79492 4.11393 3.79492 4.57617C3.79492 5.0319 3.98698 5.39974 4.37109 5.67969C4.76172 5.95312 5.46484 6.24935 6.48047 6.56836C7.93229 6.97201 9.00977 7.49935 9.71289 8.15039C10.4225 8.79492 10.7773 9.64779 10.7773 10.709C10.7773 11.7702 10.3477 12.6198 9.48828 13.2578C8.63542 13.8893 7.48958 14.2051 6.05078 14.2051C5.10677 14.2051 4.24414 14.0488 3.46289 13.7363C2.68164 13.4173 2.05339 12.9421 1.57812 12.3105C1.10286 11.679 0.871745 10.9466 0.884766 10.1133L0.904297 10.0547H3.39453C3.39453 11.526 4.27669 12.2617 6.04102 12.2617ZM18.7691 14.5859C17.773 14.5859 17.0016 14.2246 16.4547 13.502V18.0625H13.8961V4.89844H16.2105L16.357 6.02148C16.943 5.1556 17.747 4.72266 18.7691 4.72266C19.9345 4.72266 20.8427 5.17513 21.4937 6.08008C22.1513 6.98503 22.4801 8.20247 22.4801 9.73242L22.4703 9.91797C22.4703 11.3438 22.1415 12.4798 21.484 13.3262C20.8329 14.166 19.928 14.5859 18.7691 14.5859ZM19.9117 9.91797V9.73242C19.9117 8.79492 19.7587 8.05924 19.4527 7.52539C19.1467 6.98503 18.6943 6.71484 18.0953 6.71484C17.3336 6.71484 16.79 7.02083 16.4645 7.63281V11.793C16.7835 12.3464 17.3336 12.623 18.1148 12.623C18.7203 12.623 19.1695 12.3887 19.4625 11.9199C19.762 11.4447 19.9117 10.7773 19.9117 9.91797ZM28.0207 14H25.4621V4.48828H27.8449L27.9523 5.89453C28.4406 4.83984 29.1405 4.3125 30.052 4.3125C30.2733 4.3125 30.5012 4.34831 30.7355 4.41992L30.4621 6.69531L29.5246 6.66602C28.802 6.66602 28.3007 6.96875 28.0207 7.57422V14ZM38.6883 8.11133C38.6883 7.55143 38.5581 7.11523 38.2977 6.80273C38.0438 6.48372 37.6727 6.32422 37.1844 6.32422C36.6961 6.32422 36.312 6.5 36.032 6.85156C35.7521 7.20312 35.5796 7.6849 35.5145 8.29688L35.5438 8.3457H38.6883V8.11133ZM37.3895 14.2148C36.0223 14.2148 34.9253 13.7819 34.0984 12.916C33.2781 12.0501 32.868 10.9271 32.868 9.54688V9.19531C32.868 8.2513 33.0405 7.41146 33.3855 6.67578C33.7371 5.9401 34.2384 5.36719 34.8895 4.95703C35.547 4.54036 36.3055 4.33203 37.1648 4.33203C38.4409 4.33203 39.4337 4.71615 40.1434 5.48438C40.853 6.24609 41.2078 7.29427 41.2078 8.62891V10.0254H35.534L35.5145 10.084C35.56 10.7285 35.7716 11.2493 36.1492 11.6465C36.5268 12.0371 37.0086 12.2324 37.5945 12.2324C38.1805 12.2324 38.659 12.1803 39.0301 12.0762C39.4012 11.9655 39.8243 11.7799 40.2996 11.5195L40.993 13.1016V13.1113C40.5828 13.4499 40.0652 13.7201 39.4402 13.9219C38.8217 14.1172 38.1382 14.2148 37.3895 14.2148ZM52.1586 7.22266L52.1781 7.75V14H49.6195V8.23828C49.6195 7.54818 49.5056 7.05339 49.2777 6.75391C49.0499 6.45443 48.6951 6.30469 48.2133 6.30469C47.5362 6.30469 47.0186 6.55859 46.6605 7.06641V14H44.102V4.48828H46.4945L46.602 5.74805C47.2335 4.79102 48.1612 4.3125 49.3852 4.3125C50.6091 4.3125 51.4424 4.85612 51.8852 5.94336C52.5036 4.85612 53.4346 4.3125 54.6781 4.3125C55.6417 4.3125 56.3871 4.64128 56.9145 5.29883C57.4418 5.95638 57.7055 6.9362 57.7055 8.23828V14H55.1371V8.23828C55.1371 7.53516 55.0232 7.03711 54.7953 6.74414C54.574 6.45117 54.2224 6.30469 53.7406 6.30469C53.018 6.30469 52.4906 6.61068 52.1586 7.22266ZM63.7832 4.48828V14H61.2148V4.48828H63.7832ZM63.7832 0.289062V2.21289H61.2148V0.289062H63.7832Z" fill="white"/>
</svg>
