<svg width="368" height="296" viewBox="0 0 368 296" fill="none" xmlns="http://www.w3.org/2000/svg">
<rect x="127" y="51.5301" width="81" height="74.6845" rx="25" fill="#F9C27E"/>
<rect x="254" y="50.608" width="81" height="74.6845" rx="25" fill="#905127"/>
<path d="M132.568 149.513L134.477 137.876H135.614L133.705 149.513H132.568ZM127.273 146.286L127.455 145.149H136.136L135.955 146.286H127.273ZM128.477 149.513L130.386 137.876H131.523L129.614 149.513H128.477ZM127.955 142.24L128.136 141.104H136.818L136.636 142.24H127.955ZM138.503 149.513V137.876H145.48V139.126H139.912V143.058H144.957V144.308H139.912V149.513H138.503ZM151.393 137.717C151.871 137.721 152.348 137.812 152.825 137.99C153.303 138.168 153.738 138.464 154.132 138.876C154.526 139.286 154.842 139.844 155.081 140.553C155.32 141.261 155.439 142.149 155.439 143.217C155.439 144.251 155.34 145.17 155.143 145.973C154.95 146.772 154.67 147.447 154.303 147.996C153.939 148.545 153.496 148.962 152.973 149.246C152.454 149.53 151.867 149.672 151.212 149.672C150.56 149.672 149.979 149.543 149.467 149.286C148.96 149.024 148.543 148.662 148.217 148.2C147.895 147.734 147.689 147.195 147.598 146.581H148.984C149.109 147.115 149.357 147.556 149.729 147.905C150.104 148.25 150.598 148.422 151.212 148.422C152.109 148.422 152.818 148.03 153.337 147.246C153.859 146.462 154.121 145.354 154.121 143.922H154.03C153.818 144.24 153.566 144.515 153.274 144.746C152.982 144.977 152.659 145.155 152.303 145.28C151.946 145.405 151.568 145.467 151.166 145.467C150.5 145.467 149.888 145.303 149.331 144.973C148.778 144.64 148.335 144.183 148.001 143.604C147.672 143.02 147.507 142.354 147.507 141.604C147.507 140.892 147.666 140.24 147.984 139.649C148.306 139.054 148.757 138.581 149.337 138.229C149.92 137.876 150.606 137.706 151.393 137.717ZM151.393 138.967C150.916 138.967 150.486 139.087 150.104 139.325C149.725 139.56 149.424 139.878 149.2 140.28C148.981 140.678 148.871 141.119 148.871 141.604C148.871 142.089 148.977 142.53 149.189 142.928C149.405 143.322 149.698 143.636 150.07 143.871C150.445 144.102 150.871 144.217 151.348 144.217C151.708 144.217 152.043 144.147 152.354 144.007C152.664 143.863 152.935 143.668 153.166 143.422C153.401 143.172 153.585 142.89 153.717 142.575C153.85 142.257 153.916 141.926 153.916 141.581C153.916 141.126 153.806 140.7 153.587 140.303C153.371 139.905 153.071 139.583 152.689 139.337C152.31 139.09 151.878 138.967 151.393 138.967ZM167.241 141.513H165.832C165.749 141.108 165.603 140.751 165.395 140.445C165.19 140.138 164.94 139.88 164.645 139.672C164.353 139.46 164.029 139.301 163.673 139.195C163.317 139.089 162.946 139.036 162.56 139.036C161.855 139.036 161.217 139.214 160.645 139.57C160.077 139.926 159.624 140.45 159.287 141.143C158.954 141.837 158.787 142.687 158.787 143.695C158.787 144.702 158.954 145.553 159.287 146.246C159.624 146.939 160.077 147.464 160.645 147.82C161.217 148.176 161.855 148.354 162.56 148.354C162.946 148.354 163.317 148.301 163.673 148.195C164.029 148.089 164.353 147.931 164.645 147.723C164.94 147.511 165.19 147.251 165.395 146.945C165.603 146.634 165.749 146.278 165.832 145.876H167.241C167.135 146.471 166.942 147.003 166.662 147.473C166.382 147.943 166.033 148.342 165.616 148.672C165.2 148.998 164.732 149.246 164.213 149.416C163.698 149.587 163.147 149.672 162.56 149.672C161.567 149.672 160.685 149.429 159.912 148.945C159.139 148.46 158.531 147.77 158.088 146.876C157.645 145.983 157.423 144.922 157.423 143.695C157.423 142.467 157.645 141.407 158.088 140.513C158.531 139.619 159.139 138.929 159.912 138.445C160.685 137.96 161.567 137.717 162.56 137.717C163.147 137.717 163.698 137.803 164.213 137.973C164.732 138.143 165.2 138.393 165.616 138.723C166.033 139.049 166.382 139.447 166.662 139.916C166.942 140.382 167.135 140.914 167.241 141.513ZM169.314 149.513V148.49L173.155 144.286C173.606 143.793 173.977 143.365 174.268 143.001C174.56 142.634 174.776 142.289 174.916 141.967C175.06 141.642 175.132 141.301 175.132 140.945C175.132 140.536 175.034 140.181 174.837 139.882C174.643 139.583 174.378 139.352 174.041 139.189C173.704 139.026 173.325 138.945 172.905 138.945C172.458 138.945 172.068 139.037 171.734 139.223C171.405 139.405 171.149 139.661 170.967 139.99C170.789 140.32 170.7 140.706 170.7 141.149H169.359C169.359 140.467 169.517 139.869 169.831 139.354C170.145 138.839 170.573 138.437 171.115 138.149C171.661 137.861 172.272 137.717 172.95 137.717C173.632 137.717 174.236 137.861 174.763 138.149C175.289 138.437 175.702 138.825 176.001 139.314C176.301 139.803 176.45 140.346 176.45 140.945C176.45 141.373 176.373 141.791 176.217 142.2C176.066 142.606 175.801 143.058 175.422 143.558C175.047 144.054 174.526 144.661 173.859 145.376L171.246 148.172V148.263H176.655V149.513H169.314ZM179.365 149.513L184.57 139.217V139.126H178.57V137.876H186.024V139.195L180.842 149.513H179.365ZM188.347 149.513V137.876H195.369V139.126H189.756V143.058H195.006V144.308H189.756V148.263H195.46V149.513H188.347Z" fill="white"/>
<path d="M265.568 149.513L267.477 137.876H268.614L266.705 149.513H265.568ZM260.273 146.286L260.455 145.149H269.136L268.955 146.286H260.273ZM261.477 149.513L263.386 137.876H264.523L262.614 149.513H261.477ZM260.955 142.24L261.136 141.104H269.818L269.636 142.24H260.955ZM275.003 137.717C275.48 137.721 275.957 137.812 276.435 137.99C276.912 138.168 277.348 138.464 277.741 138.876C278.135 139.286 278.452 139.844 278.69 140.553C278.929 141.261 279.048 142.149 279.048 143.217C279.048 144.251 278.95 145.17 278.753 145.973C278.56 146.772 278.279 147.447 277.912 147.996C277.548 148.545 277.105 148.962 276.582 149.246C276.063 149.53 275.476 149.672 274.821 149.672C274.17 149.672 273.588 149.543 273.077 149.286C272.569 149.024 272.152 148.662 271.827 148.2C271.505 147.734 271.298 147.195 271.207 146.581H272.594C272.719 147.115 272.967 147.556 273.338 147.905C273.713 148.25 274.207 148.422 274.821 148.422C275.719 148.422 276.427 148.03 276.946 147.246C277.469 146.462 277.73 145.354 277.73 143.922H277.639C277.427 144.24 277.175 144.515 276.884 144.746C276.592 144.977 276.268 145.155 275.912 145.28C275.556 145.405 275.177 145.467 274.776 145.467C274.109 145.467 273.497 145.303 272.94 144.973C272.387 144.64 271.944 144.183 271.611 143.604C271.281 143.02 271.116 142.354 271.116 141.604C271.116 140.892 271.276 140.24 271.594 139.649C271.916 139.054 272.366 138.581 272.946 138.229C273.529 137.876 274.215 137.706 275.003 137.717ZM275.003 138.967C274.526 138.967 274.096 139.087 273.713 139.325C273.334 139.56 273.033 139.878 272.81 140.28C272.59 140.678 272.48 141.119 272.48 141.604C272.48 142.089 272.586 142.53 272.798 142.928C273.014 143.322 273.308 143.636 273.679 143.871C274.054 144.102 274.48 144.217 274.957 144.217C275.317 144.217 275.652 144.147 275.963 144.007C276.274 143.863 276.545 143.668 276.776 143.422C277.01 143.172 277.194 142.89 277.327 142.575C277.459 142.257 277.526 141.926 277.526 141.581C277.526 141.126 277.416 140.7 277.196 140.303C276.98 139.905 276.681 139.583 276.298 139.337C275.92 139.09 275.488 138.967 275.003 138.967ZM285.078 149.672C284.222 149.672 283.493 149.439 282.891 148.973C282.288 148.503 281.828 147.823 281.51 146.933C281.192 146.039 281.033 144.96 281.033 143.695C281.033 142.437 281.192 141.363 281.51 140.473C281.832 139.579 282.294 138.897 282.896 138.428C283.502 137.954 284.23 137.717 285.078 137.717C285.927 137.717 286.652 137.954 287.254 138.428C287.86 138.897 288.322 139.579 288.641 140.473C288.963 141.363 289.124 142.437 289.124 143.695C289.124 144.96 288.964 146.039 288.646 146.933C288.328 147.823 287.868 148.503 287.266 148.973C286.663 149.439 285.934 149.672 285.078 149.672ZM285.078 148.422C285.927 148.422 286.586 148.013 287.055 147.195C287.525 146.376 287.76 145.21 287.76 143.695C287.76 142.687 287.652 141.829 287.436 141.121C287.224 140.412 286.917 139.873 286.516 139.501C286.118 139.13 285.639 138.945 285.078 138.945C284.237 138.945 283.58 139.359 283.107 140.189C282.633 141.015 282.396 142.183 282.396 143.695C282.396 144.702 282.502 145.558 282.714 146.263C282.927 146.967 283.232 147.503 283.629 147.871C284.031 148.238 284.514 148.422 285.078 148.422ZM294.919 149.672C294.252 149.672 293.652 149.539 293.118 149.274C292.584 149.009 292.156 148.645 291.834 148.183C291.512 147.721 291.336 147.195 291.305 146.604H292.669C292.722 147.13 292.961 147.566 293.385 147.911C293.813 148.251 294.324 148.422 294.919 148.422C295.396 148.422 295.821 148.31 296.192 148.087C296.567 147.863 296.86 147.556 297.072 147.166C297.288 146.772 297.396 146.327 297.396 145.831C297.396 145.323 297.285 144.871 297.061 144.473C296.841 144.072 296.538 143.755 296.152 143.524C295.766 143.293 295.324 143.176 294.828 143.172C294.472 143.168 294.107 143.223 293.732 143.337C293.357 143.447 293.048 143.589 292.805 143.763L291.487 143.604L292.192 137.876H298.237V139.126H293.374L292.964 142.558H293.033C293.271 142.369 293.571 142.212 293.93 142.087C294.29 141.962 294.665 141.899 295.055 141.899C295.768 141.899 296.402 142.07 296.959 142.411C297.519 142.748 297.959 143.21 298.277 143.797C298.599 144.384 298.76 145.054 298.76 145.808C298.76 146.551 298.593 147.214 298.26 147.797C297.93 148.376 297.476 148.835 296.896 149.172C296.317 149.505 295.658 149.672 294.919 149.672ZM305.108 137.876V149.513H303.699V139.354H303.631L300.79 141.24V139.808L303.699 137.876H305.108ZM308.455 149.513V148.49L312.295 144.286C312.746 143.793 313.117 143.365 313.409 143.001C313.701 142.634 313.917 142.289 314.057 141.967C314.201 141.642 314.273 141.301 314.273 140.945C314.273 140.536 314.174 140.181 313.977 139.882C313.784 139.583 313.519 139.352 313.182 139.189C312.845 139.026 312.466 138.945 312.045 138.945C311.598 138.945 311.208 139.037 310.875 139.223C310.545 139.405 310.29 139.661 310.108 139.99C309.93 140.32 309.841 140.706 309.841 141.149H308.5C308.5 140.467 308.657 139.869 308.972 139.354C309.286 138.839 309.714 138.437 310.256 138.149C310.801 137.861 311.413 137.717 312.091 137.717C312.773 137.717 313.377 137.861 313.903 138.149C314.43 138.437 314.843 138.825 315.142 139.314C315.441 139.803 315.591 140.346 315.591 140.945C315.591 141.373 315.513 141.791 315.358 142.2C315.206 142.606 314.941 143.058 314.562 143.558C314.188 144.054 313.667 144.661 313 145.376L310.386 148.172V148.263H315.795V149.513H308.455ZM318.506 149.513L323.71 139.217V139.126H317.71V137.876H325.165V139.195L319.983 149.513H318.506Z" fill="white"/>
<rect y="51.5301" width="81" height="74.6845" rx="25" fill="#7DE2FF"/>
<rect y="185.224" width="81" height="74.6845" rx="25" fill="white"/>
<rect x="127" y="186.146" width="81" height="74.6845" rx="25" fill="#F59D4B"/>
<path d="M5.56818 285.051L7.47727 273.415H8.61364L6.70455 285.051H5.56818ZM0.272727 281.824L0.454545 280.688H9.13636L8.95455 281.824H0.272727ZM1.47727 285.051L3.38636 273.415H4.52273L2.61364 285.051H1.47727ZM0.954545 277.779L1.13636 276.642H9.81818L9.63636 277.779H0.954545ZM11.5028 285.051V273.415H18.4801V274.665H12.9119V278.597H17.9574V279.847H12.9119V285.051H11.5028ZM20.8935 285.051V273.415H27.8707V274.665H22.3026V278.597H27.348V279.847H22.3026V285.051H20.8935ZM30.2841 285.051V273.415H37.2614V274.665H31.6932V278.597H36.7386V279.847H31.6932V285.051H30.2841ZM39.6747 285.051V273.415H46.652V274.665H41.0838V278.597H46.1293V279.847H41.0838V285.051H39.6747ZM49.0653 285.051V273.415H56.0426V274.665H50.4744V278.597H55.5199V279.847H50.4744V285.051H49.0653ZM58.456 285.051V273.415H65.4332V274.665H59.8651V278.597H64.9105V279.847H59.8651V285.051H58.456Z" fill="white"/>
<path d="M139.568 285.051L141.477 273.415H142.614L140.705 285.051H139.568ZM134.273 281.824L134.455 280.688H143.136L142.955 281.824H134.273ZM135.477 285.051L137.386 273.415H138.523L136.614 285.051H135.477ZM134.955 277.779L135.136 276.642H143.818L143.636 277.779H134.955ZM145.503 285.051V273.415H152.48V274.665H146.912V278.597H151.957V279.847H146.912V285.051H145.503ZM158.325 285.21C157.659 285.21 157.058 285.078 156.524 284.813C155.99 284.547 155.562 284.184 155.24 283.722C154.918 283.26 154.742 282.733 154.712 282.142H156.075C156.128 282.669 156.367 283.104 156.791 283.449C157.219 283.79 157.731 283.96 158.325 283.96C158.803 283.96 159.227 283.849 159.598 283.625C159.973 283.402 160.267 283.095 160.479 282.705C160.695 282.311 160.803 281.866 160.803 281.369C160.803 280.862 160.691 280.409 160.467 280.011C160.248 279.61 159.945 279.294 159.558 279.063C159.172 278.832 158.731 278.714 158.234 278.71C157.878 278.707 157.513 278.761 157.138 278.875C156.763 278.985 156.454 279.127 156.212 279.301L154.893 279.142L155.598 273.415H161.643V274.665H156.78L156.371 278.097H156.439C156.678 277.907 156.977 277.75 157.337 277.625C157.696 277.5 158.071 277.438 158.462 277.438C159.174 277.438 159.808 277.608 160.365 277.949C160.926 278.286 161.365 278.748 161.683 279.335C162.005 279.922 162.166 280.593 162.166 281.347C162.166 282.089 162 282.752 161.666 283.335C161.337 283.915 160.882 284.373 160.303 284.71C159.723 285.044 159.064 285.21 158.325 285.21ZM168.128 273.256C168.605 273.26 169.082 273.351 169.56 273.529C170.037 273.707 170.473 274.002 170.866 274.415C171.26 274.824 171.577 275.383 171.815 276.091C172.054 276.799 172.173 277.688 172.173 278.756C172.173 279.79 172.075 280.708 171.878 281.511C171.685 282.311 171.404 282.985 171.037 283.534C170.673 284.083 170.23 284.5 169.707 284.784C169.188 285.068 168.601 285.21 167.946 285.21C167.295 285.21 166.713 285.082 166.202 284.824C165.694 284.563 165.277 284.201 164.952 283.739C164.63 283.273 164.423 282.733 164.332 282.119H165.719C165.844 282.654 166.092 283.095 166.463 283.443C166.838 283.788 167.332 283.96 167.946 283.96C168.844 283.96 169.552 283.568 170.071 282.784C170.594 282 170.855 280.892 170.855 279.46H170.764C170.552 279.779 170.3 280.053 170.009 280.284C169.717 280.515 169.393 280.693 169.037 280.818C168.681 280.943 168.302 281.006 167.901 281.006C167.234 281.006 166.622 280.841 166.065 280.511C165.512 280.178 165.069 279.722 164.736 279.142C164.406 278.559 164.241 277.892 164.241 277.142C164.241 276.43 164.401 275.779 164.719 275.188C165.041 274.593 165.491 274.119 166.071 273.767C166.654 273.415 167.34 273.244 168.128 273.256ZM168.128 274.506C167.651 274.506 167.221 274.625 166.838 274.864C166.459 275.099 166.158 275.417 165.935 275.818C165.715 276.216 165.605 276.657 165.605 277.142C165.605 277.627 165.711 278.068 165.923 278.466C166.139 278.86 166.433 279.174 166.804 279.409C167.179 279.64 167.605 279.756 168.082 279.756C168.442 279.756 168.777 279.686 169.088 279.546C169.399 279.402 169.67 279.207 169.901 278.96C170.135 278.71 170.319 278.428 170.452 278.114C170.584 277.796 170.651 277.464 170.651 277.119C170.651 276.665 170.541 276.239 170.321 275.841C170.105 275.443 169.806 275.121 169.423 274.875C169.045 274.629 168.613 274.506 168.128 274.506ZM178.203 285.051H174.612V273.415H178.362C179.491 273.415 180.457 273.648 181.26 274.114C182.063 274.576 182.679 275.241 183.107 276.108C183.535 276.972 183.749 278.006 183.749 279.21C183.749 280.422 183.533 281.466 183.101 282.341C182.669 283.212 182.04 283.883 181.214 284.352C180.389 284.818 179.385 285.051 178.203 285.051ZM176.021 283.801H178.112C179.074 283.801 179.872 283.616 180.504 283.244C181.137 282.873 181.608 282.345 181.919 281.659C182.23 280.974 182.385 280.157 182.385 279.21C182.385 278.271 182.232 277.462 181.925 276.784C181.618 276.102 181.16 275.58 180.55 275.216C179.94 274.849 179.18 274.665 178.271 274.665H176.021V283.801ZM185.635 282.665V281.506L190.749 273.415H191.589V275.21H191.021L187.158 281.324V281.415H194.044V282.665H185.635ZM191.112 285.051V282.313V281.773V273.415H192.453V285.051H191.112ZM196.378 285.051V273.415H200.446C201.257 273.415 201.925 273.555 202.452 273.835C202.978 274.112 203.37 274.485 203.628 274.955C203.885 275.421 204.014 275.938 204.014 276.506C204.014 277.006 203.925 277.419 203.747 277.744C203.573 278.07 203.342 278.328 203.054 278.517C202.77 278.707 202.461 278.847 202.128 278.938V279.051C202.484 279.074 202.842 279.199 203.202 279.426C203.562 279.654 203.863 279.979 204.105 280.404C204.348 280.828 204.469 281.347 204.469 281.96C204.469 282.544 204.336 283.068 204.071 283.534C203.806 284 203.387 284.369 202.815 284.642C202.243 284.915 201.499 285.051 200.582 285.051H196.378ZM197.787 283.801H200.582C201.503 283.801 202.156 283.623 202.543 283.267C202.933 282.907 203.128 282.472 203.128 281.96C203.128 281.566 203.027 281.203 202.827 280.869C202.626 280.532 202.34 280.263 201.969 280.063C201.598 279.858 201.158 279.756 200.651 279.756H197.787V283.801ZM197.787 278.529H200.401C200.825 278.529 201.207 278.445 201.548 278.279C201.893 278.112 202.166 277.877 202.366 277.574C202.571 277.271 202.673 276.915 202.673 276.506C202.673 275.994 202.495 275.561 202.139 275.205C201.783 274.845 201.219 274.665 200.446 274.665H197.787V278.529Z" fill="white"/>
<path d="M11.5682 157.811L13.4773 146.175H14.6136L12.7045 157.811H11.5682ZM6.27273 154.584L6.45455 153.447H15.1364L14.9545 154.584H6.27273ZM7.47727 157.811L9.38636 146.175H10.5227L8.61364 157.811H7.47727ZM6.95455 150.538L7.13636 149.402H15.8182L15.6364 150.538H6.95455ZM17.6619 157.811L22.8665 147.516V147.425H16.8665V146.175H24.321V147.493L19.1392 157.811H17.6619ZM30.2344 157.811H26.6435V146.175H30.3935C31.5223 146.175 32.4882 146.408 33.2912 146.874C34.0942 147.336 34.7098 148 35.1378 148.868C35.5658 149.732 35.7798 150.766 35.7798 151.97C35.7798 153.182 35.5639 154.226 35.1321 155.101C34.7003 155.972 34.0715 156.643 33.2457 157.112C32.42 157.578 31.4162 157.811 30.2344 157.811ZM28.0526 156.561H30.1435C31.1056 156.561 31.9029 156.375 32.5355 156.004C33.1681 155.633 33.6397 155.105 33.9503 154.419C34.2609 153.733 34.4162 152.917 34.4162 151.97C34.4162 151.031 34.2628 150.222 33.956 149.544C33.6491 148.862 33.1908 148.34 32.581 147.976C31.9711 147.608 31.2116 147.425 30.3026 147.425H28.0526V156.561ZM38.1435 157.811V146.175H45.1662V147.425H39.5526V151.357H44.8026V152.607H39.5526V156.561H45.2571V157.811H38.1435ZM47.5014 157.811V156.788L51.3423 152.584C51.7931 152.091 52.1643 151.663 52.456 151.3C52.7476 150.932 52.9635 150.588 53.1037 150.266C53.2476 149.94 53.3196 149.599 53.3196 149.243C53.3196 148.834 53.2211 148.48 53.0241 148.18C52.831 147.881 52.5658 147.65 52.2287 147.487C51.8916 147.324 51.5128 147.243 51.0923 147.243C50.6454 147.243 50.2552 147.336 49.9219 147.521C49.5923 147.703 49.3366 147.959 49.1548 148.288C48.9768 148.618 48.8878 149.004 48.8878 149.447H47.5469C47.5469 148.766 47.7041 148.167 48.0185 147.652C48.3329 147.137 48.7609 146.735 49.3026 146.447C49.848 146.16 50.4598 146.016 51.1378 146.016C51.8196 146.016 52.4238 146.16 52.9503 146.447C53.4768 146.735 53.8897 147.124 54.1889 147.612C54.4882 148.101 54.6378 148.644 54.6378 149.243C54.6378 149.671 54.5601 150.09 54.4048 150.499C54.2533 150.904 53.9882 151.357 53.6094 151.857C53.2344 152.353 52.7135 152.959 52.0469 153.675L49.4332 156.47V156.561H54.8423V157.811H47.5014ZM57.3935 157.811V146.175H64.3707V147.425H58.8026V151.357H63.848V152.607H58.8026V157.811H57.3935ZM66.7841 157.811V146.175H73.7614V147.425H68.1932V151.357H73.2386V152.607H68.1932V157.811H66.7841Z" fill="white"/>
<path d="M1.15909 8.23887V6.36387H14.25V8.23887H8.76136V23.8184H6.64773V8.23887H1.15909ZM19.2507 15.9434V23.8184H17.2393V6.36387H19.2507V12.773H19.4212C19.728 12.0968 20.1882 11.5599 20.8018 11.1622C21.4212 10.7588 22.245 10.5571 23.2734 10.5571C24.1655 10.5571 24.9467 10.736 25.6172 11.094C26.2876 11.4463 26.8075 11.9889 27.1768 12.7218C27.5518 13.4491 27.7393 14.3752 27.7393 15.5002V23.8184H25.728V15.6366C25.728 14.5968 25.4581 13.7929 24.9183 13.2247C24.3842 12.6508 23.6428 12.3639 22.6939 12.3639C22.0348 12.3639 21.4439 12.5031 20.9212 12.7815C20.4041 13.0599 19.995 13.4661 19.6939 14.0002C19.3984 14.5343 19.2507 15.1821 19.2507 15.9434ZM36.9077 24.0911C35.6463 24.0911 34.5582 23.8127 33.6435 23.2559C32.7344 22.6934 32.0327 21.9093 31.5384 20.9036C31.0497 19.8923 30.8054 18.7161 30.8054 17.3752C30.8054 16.0343 31.0497 14.8525 31.5384 13.8298C32.0327 12.8014 32.7202 12.0002 33.6009 11.4264C34.4872 10.8468 35.5213 10.5571 36.7031 10.5571C37.3849 10.5571 38.0582 10.6707 38.723 10.898C39.3878 11.1252 39.9929 11.4946 40.5384 12.0059C41.0838 12.5116 41.5185 13.1821 41.8423 14.0173C42.1662 14.8525 42.3281 15.8809 42.3281 17.1025V17.9548H32.2372V16.2161H40.2827C40.2827 15.4775 40.1349 14.8184 39.8395 14.2389C39.5497 13.6593 39.1349 13.2019 38.5952 12.8667C38.0611 12.5315 37.4304 12.3639 36.7031 12.3639C35.902 12.3639 35.2088 12.5627 34.6236 12.9605C34.044 13.3525 33.598 13.8639 33.2855 14.4946C32.973 15.1252 32.8168 15.8014 32.8168 16.523V17.6821C32.8168 18.6707 32.9872 19.5088 33.3281 20.1963C33.6747 20.8781 34.1548 21.398 34.7685 21.7559C35.3821 22.1082 36.0952 22.2843 36.9077 22.2843C37.4361 22.2843 37.9134 22.2105 38.3395 22.0627C38.7713 21.9093 39.1435 21.6821 39.456 21.3809C39.7685 21.0741 40.0099 20.6934 40.1804 20.2389L42.1236 20.7843C41.919 21.4434 41.5753 22.023 41.0923 22.523C40.6094 23.0173 40.0128 23.4036 39.3026 23.6821C38.5923 23.9548 37.794 24.0911 36.9077 24.0911ZM45.3878 23.8184V10.7275H47.331V12.773H47.5014C47.7741 12.0741 48.2145 11.5315 48.8224 11.1451C49.4304 10.7531 50.1605 10.5571 51.0128 10.5571C51.8764 10.5571 52.5952 10.7531 53.169 11.1451C53.7486 11.5315 54.2003 12.0741 54.5241 12.773H54.6605C54.9957 12.0968 55.4986 11.5599 56.169 11.1622C56.8395 10.7588 57.6435 10.5571 58.581 10.5571C59.7514 10.5571 60.7088 10.9235 61.4531 11.6565C62.1974 12.3838 62.5696 13.5173 62.5696 15.0571V23.8184H60.5582V15.0571C60.5582 14.0911 60.294 13.4008 59.7656 12.986C59.2372 12.5713 58.6151 12.3639 57.8991 12.3639C56.9787 12.3639 56.2656 12.6423 55.7599 13.1991C55.2543 13.7502 55.0014 14.4491 55.0014 15.2957V23.8184H52.956V14.8525C52.956 14.1082 52.7145 13.5088 52.2315 13.0542C51.7486 12.594 51.1264 12.3639 50.3651 12.3639C49.8423 12.3639 49.3537 12.5031 48.8991 12.7815C48.4503 13.0599 48.0866 13.4463 47.8082 13.9406C47.5355 14.4292 47.3991 14.9946 47.3991 15.6366V23.8184H45.3878ZM71.7358 24.0911C70.4744 24.0911 69.3864 23.8127 68.4716 23.2559C67.5625 22.6934 66.8608 21.9093 66.3665 20.9036C65.8778 19.8923 65.6335 18.7161 65.6335 17.3752C65.6335 16.0343 65.8778 14.8525 66.3665 13.8298C66.8608 12.8014 67.5483 12.0002 68.429 11.4264C69.3153 10.8468 70.3494 10.5571 71.5312 10.5571C72.2131 10.5571 72.8864 10.6707 73.5511 10.898C74.2159 11.1252 74.821 11.4946 75.3665 12.0059C75.9119 12.5116 76.3466 13.1821 76.6705 14.0173C76.9943 14.8525 77.1562 15.8809 77.1562 17.1025V17.9548H67.0653V16.2161H75.1108C75.1108 15.4775 74.9631 14.8184 74.6676 14.2389C74.3778 13.6593 73.9631 13.2019 73.4233 12.8667C72.8892 12.5315 72.2585 12.3639 71.5312 12.3639C70.7301 12.3639 70.0369 12.5627 69.4517 12.9605C68.8722 13.3525 68.4261 13.8639 68.1136 14.4946C67.8011 15.1252 67.6449 15.8014 67.6449 16.523V17.6821C67.6449 18.6707 67.8153 19.5088 68.1562 20.1963C68.5028 20.8781 68.983 21.398 69.5966 21.7559C70.2102 22.1082 70.9233 22.2843 71.7358 22.2843C72.2642 22.2843 72.7415 22.2105 73.1676 22.0627C73.5994 21.9093 73.9716 21.6821 74.2841 21.3809C74.5966 21.0741 74.8381 20.6934 75.0085 20.2389L76.9517 20.7843C76.7472 21.4434 76.4034 22.023 75.9205 22.523C75.4375 23.0173 74.8409 23.4036 74.1307 23.6821C73.4205 23.9548 72.6222 24.0911 71.7358 24.0911ZM92.2841 24.0911C91.0568 24.0911 90 23.8014 89.1136 23.2218C88.2273 22.6423 87.5455 21.844 87.0682 20.8269C86.5909 19.8099 86.3523 18.648 86.3523 17.3411C86.3523 16.0116 86.5966 14.8383 87.0852 13.8213C87.5795 12.7985 88.267 12.0002 89.1477 11.4264C90.0341 10.8468 91.0682 10.5571 92.25 10.5571C93.1705 10.5571 94 10.7275 94.7386 11.0684C95.4773 11.4093 96.0824 11.8866 96.554 12.5002C97.0256 13.1139 97.3182 13.8298 97.4318 14.648H95.4205C95.267 14.0514 94.9261 13.523 94.3977 13.0627C93.875 12.5968 93.1705 12.3639 92.2841 12.3639C91.5 12.3639 90.8125 12.5684 90.2216 12.9775C89.6364 13.3809 89.179 13.9519 88.8494 14.6906C88.5256 15.4235 88.3636 16.2843 88.3636 17.273C88.3636 18.2843 88.5227 19.165 88.8409 19.915C89.1648 20.665 89.6193 21.2474 90.2045 21.6622C90.7955 22.0769 91.4886 22.2843 92.2841 22.2843C92.8068 22.2843 93.2812 22.1934 93.7074 22.0116C94.1335 21.8298 94.4943 21.5684 94.7898 21.2275C95.0852 20.8866 95.2955 20.4775 95.4205 20.0002H97.4318C97.3182 20.773 97.0369 21.469 96.5881 22.0883C96.1449 22.7019 95.5568 23.1906 94.8239 23.5542C94.0966 23.9122 93.25 24.0911 92.2841 24.0911ZM105.69 24.0911C104.509 24.0911 103.472 23.8099 102.58 23.2474C101.693 22.6849 101 21.898 100.5 20.8866C100.006 19.8752 99.7585 18.6934 99.7585 17.3411C99.7585 15.9775 100.006 14.7872 100.5 13.7701C101 12.7531 101.693 11.9633 102.58 11.4008C103.472 10.8383 104.509 10.5571 105.69 10.5571C106.872 10.5571 107.906 10.8383 108.793 11.4008C109.685 11.9633 110.378 12.7531 110.872 13.7701C111.372 14.7872 111.622 15.9775 111.622 17.3411C111.622 18.6934 111.372 19.8752 110.872 20.8866C110.378 21.898 109.685 22.6849 108.793 23.2474C107.906 23.8099 106.872 24.0911 105.69 24.0911ZM105.69 22.2843C106.588 22.2843 107.327 22.0542 107.906 21.594C108.486 21.1338 108.915 20.5286 109.193 19.7786C109.472 19.0286 109.611 18.2161 109.611 17.3411C109.611 16.4661 109.472 15.6508 109.193 14.8951C108.915 14.1394 108.486 13.5286 107.906 13.0627C107.327 12.5968 106.588 12.3639 105.69 12.3639C104.793 12.3639 104.054 12.5968 103.474 13.0627C102.895 13.5286 102.466 14.1394 102.188 14.8951C101.909 15.6508 101.77 16.4661 101.77 17.3411C101.77 18.2161 101.909 19.0286 102.188 19.7786C102.466 20.5286 102.895 21.1338 103.474 21.594C104.054 22.0542 104.793 22.2843 105.69 22.2843ZM116.704 6.36387V23.8184H114.692V6.36387H116.704ZM125.706 24.0911C124.524 24.0911 123.487 23.8099 122.595 23.2474C121.709 22.6849 121.016 21.898 120.516 20.8866C120.021 19.8752 119.774 18.6934 119.774 17.3411C119.774 15.9775 120.021 14.7872 120.516 13.7701C121.016 12.7531 121.709 11.9633 122.595 11.4008C123.487 10.8383 124.524 10.5571 125.706 10.5571C126.888 10.5571 127.922 10.8383 128.808 11.4008C129.7 11.9633 130.393 12.7531 130.888 13.7701C131.388 14.7872 131.638 15.9775 131.638 17.3411C131.638 18.6934 131.388 19.8752 130.888 20.8866C130.393 21.898 129.7 22.6849 128.808 23.2474C127.922 23.8099 126.888 24.0911 125.706 24.0911ZM125.706 22.2843C126.604 22.2843 127.342 22.0542 127.922 21.594C128.501 21.1338 128.93 20.5286 129.209 19.7786C129.487 19.0286 129.626 18.2161 129.626 17.3411C129.626 16.4661 129.487 15.6508 129.209 14.8951C128.93 14.1394 128.501 13.5286 127.922 13.0627C127.342 12.5968 126.604 12.3639 125.706 12.3639C124.808 12.3639 124.07 12.5968 123.49 13.0627C122.911 13.5286 122.482 14.1394 122.203 14.8951C121.925 15.6508 121.786 16.4661 121.786 17.3411C121.786 18.2161 121.925 19.0286 122.203 19.7786C122.482 20.5286 122.911 21.1338 123.49 21.594C124.07 22.0542 124.808 22.2843 125.706 22.2843ZM134.708 23.8184V10.7275H136.651V12.7048H136.788C137.026 12.0571 137.458 11.5315 138.083 11.1281C138.708 10.7247 139.413 10.523 140.197 10.523C140.344 10.523 140.529 10.5258 140.751 10.5315C140.972 10.5372 141.14 10.5457 141.254 10.5571V12.6025C141.185 12.5855 141.029 12.5599 140.785 12.5258C140.546 12.486 140.293 12.4661 140.026 12.4661C139.39 12.4661 138.822 12.5997 138.322 12.8667C137.827 13.1281 137.435 13.4917 137.146 13.9576C136.862 14.4179 136.719 14.9434 136.719 15.5343V23.8184H134.708ZM152.911 13.6593L151.104 14.1707C150.99 13.8696 150.822 13.5769 150.601 13.2929C150.385 13.0031 150.089 12.7644 149.714 12.5769C149.339 12.3894 148.859 12.2957 148.274 12.2957C147.473 12.2957 146.805 12.4804 146.271 12.8497C145.743 13.2133 145.479 13.6764 145.479 14.2389C145.479 14.7389 145.661 15.1338 146.024 15.4235C146.388 15.7133 146.956 15.9548 147.729 16.148L149.672 16.6252C150.842 16.9093 151.714 17.344 152.288 17.9292C152.862 18.5088 153.149 19.2559 153.149 20.1707C153.149 20.9207 152.933 21.5911 152.501 22.1821C152.075 22.773 151.479 23.2389 150.712 23.5798C149.945 23.9207 149.053 24.0911 148.036 24.0911C146.7 24.0911 145.595 23.8014 144.72 23.2218C143.845 22.6423 143.291 21.7957 143.058 20.6821L144.967 20.2048C145.149 20.9093 145.493 21.4377 145.999 21.79C146.51 22.1423 147.178 22.3184 148.001 22.3184C148.939 22.3184 149.683 22.1196 150.234 21.7218C150.791 21.3184 151.07 20.8355 151.07 20.273C151.07 19.8184 150.911 19.4377 150.592 19.1309C150.274 18.8184 149.786 18.5855 149.126 18.4321L146.945 17.9207C145.746 17.6366 144.865 17.1963 144.303 16.5997C143.746 15.9974 143.467 15.2446 143.467 14.3411C143.467 13.6025 143.675 12.9491 144.089 12.3809C144.51 11.8127 145.081 11.3667 145.803 11.0429C146.53 10.719 147.354 10.5571 148.274 10.5571C149.57 10.5571 150.587 10.8411 151.325 11.4093C152.07 11.9775 152.598 12.7275 152.911 13.6593Z" fill="white"/>
</svg>
